  0
SECTION
  2
HEADER
  9
$ACADVER
  1
AC1024
  9
$ACADMAINTVER
 70
     6
  9
$DWGCODEPAGE
  3
ANSI_1252
  9
$INSBASE
 10
0.0
 20
0.0
 30
0.0
  9
$EXTMIN
 10
1.000000000000000E+20
 20
1.000000000000000E+20
 30
1.000000000000000E+20
  9
$EXTMAX
 10
-1.000000000000000E+20
 20
-1.000000000000000E+20
 30
-1.000000000000000E+20
  9
$LIMMIN
 10
0.0
 20
0.0
  9
$LIMMAX
 10
12.0
 20
9.0
  9
$ORTHOMODE
 70
     0
  9
$REGENMODE
 70
     1
  9
$FILLMODE
 70
     1
  9
$QTEXTMODE
 70
     0
  9
$MIRRTEXT
 70
     1
  9
$LTSCALE
 40
1.0
  9
$ATTMODE
 70
     1
  9
$TEXTSIZE
 40
0.2
  9
$TRACEWID
 40
0.05
  9
$TEXTSTYLE
  7
Standard
  9
$CLAYER
  8
0
  9
$CELTYPE
  6
ByLayer
  9
$CECOLOR
 62
   256
  9
$CELTSCALE
 40
1.0
  9
$DISPSILH
 70
     0
  9
$DIMSCALE
 40
1.0
  9
$DIMASZ
 40
0.18
  9
$DIMEXO
 40
0.0625
  9
$DIMDLI
 40
0.38
  9
$DIMRND
 40
0.0
  9
$DIMDLE
 40
0.0
  9
$DIMEXE
 40
0.18
  9
$DIMTP
 40
0.0
  9
$DIMTM
 40
0.0
  9
$DIMTXT
 40
0.18
  9
$DIMCEN
 40
0.09
  9
$DIMTSZ
 40
0.0
  9
$DIMTOL
 70
     0
  9
$DIMLIM
 70
     0
  9
$DIMTIH
 70
     1
  9
$DIMTOH
 70
     1
  9
$DIMSE1
 70
     0
  9
$DIMSE2
 70
     0
  9
$DIMTAD
 70
     0
  9
$DIMZIN
 70
     0
  9
$DIMBLK
  1

  9
$DIMASO
 70
     1
  9
$DIMSHO
 70
     1
  9
$DIMPOST
  1

  9
$DIMAPOST
  1

  9
$DIMALT
 70
     0
  9
$DIMALTD
 70
     2
  9
$DIMALTF
 40
25.4
  9
$DIMLFAC
 40
1.0
  9
$DIMTOFL
 70
     0
  9
$DIMTVP
 40
0.0
  9
$DIMTIX
 70
     0
  9
$DIMSOXD
 70
     0
  9
$DIMSAH
 70
     0
  9
$DIMBLK1
  1

  9
$DIMBLK2
  1

  9
$DIMSTYLE
  2
Standard
  9
$DIMCLRD
 70
     0
  9
$DIMCLRE
 70
     0
  9
$DIMCLRT
 70
     0
  9
$DIMTFAC
 40
1.0
  9
$DIMGAP
 40
0.09
  9
$DIMJUST
 70
     0
  9
$DIMSD1
 70
     0
  9
$DIMSD2
 70
     0
  9
$DIMTOLJ
 70
     1
  9
$DIMTZIN
 70
     0
  9
$DIMALTZ
 70
     0
  9
$DIMALTTZ
 70
     0
  9
$DIMUPT
 70
     0
  9
$DIMDEC
 70
     4
  9
$DIMTDEC
 70
     4
  9
$DIMALTU
 70
     2
  9
$DIMALTTD
 70
     2
  9
$DIMTXSTY
  7
Standard
  9
$DIMAUNIT
 70
     0
  9
$DIMADEC
 70
     0
  9
$DIMALTRND
 40
0.0
  9
$DIMAZIN
 70
     0
  9
$DIMDSEP
 70
    46
  9
$DIMATFIT
 70
     3
  9
$DIMFRAC
 70
     0
  9
$DIMLDRBLK
  1

  9
$DIMLUNIT
 70
     2
  9
$DIMLWD
 70
    -2
  9
$DIMLWE
 70
    -2
  9
$DIMTMOVE
 70
     0
  9
$DIMFXL
 40
1.0
  9
$DIMFXLON
 70
     0
  9
$DIMJOGANG
 40
0.7853981633974483
  9
$DIMTFILL
 70
     0
  9
$DIMTFILLCLR
 70
     0
  9
$DIMARCSYM
 70
     0
  9
$DIMLTYPE
  6

  9
$DIMLTEX1
  6

  9
$DIMLTEX2
  6

  9
$DIMTXTDIRECTION
 70
     0
  9
$LUNITS
 70
     2
  9
$LUPREC
 70
     4
  9
$SKETCHINC
 40
0.1
  9
$FILLETRAD
 40
0.5
  9
$AUNITS
 70
     0
  9
$AUPREC
 70
     0
  9
$MENU
  1
.
  9
$ELEVATION
 40
0.0
  9
$PELEVATION
 40
0.0
  9
$THICKNESS
 40
0.0
  9
$LIMCHECK
 70
     0
  9
$CHAMFERA
 40
0.5
  9
$CHAMFERB
 40
0.5
  9
$CHAMFERC
 40
1.0
  9
$CHAMFERD
 40
0.0
  9
$SKPOLY
 70
     0
  9
$TDCREATE
 40
2459244.479967303
  9
$TDUCREATE
 40
2459244.438300637
  9
$TDUPDATE
 40
2459244.479967372
  9
$TDUUPDATE
 40
2459244.438300706
  9
$TDINDWG
 40
0.0000000116
  9
$TDUSRTIMER
 40
0.0000000116
  9
$USRTIMER
 70
     1
  9
$ANGBASE
 50
0.0
  9
$ANGDIR
 70
     0
  9
$PDMODE
 70
     0
  9
$PDSIZE
 40
0.0
  9
$PLINEWID
 40
0.0
  9
$SPLFRAME
 70
     0
  9
$SPLINETYPE
 70
     6
  9
$SPLINESEGS
 70
     8
  9
$HANDSEED
  5
A3
  9
$SURFTAB1
 70
     6
  9
$SURFTAB2
 70
     6
  9
$SURFTYPE
 70
     6
  9
$SURFU
 70
     6
  9
$SURFV
 70
     6
  9
$UCSBASE
  2

  9
$UCSNAME
  2

  9
$UCSORG
 10
0.0
 20
0.0
 30
0.0
  9
$UCSXDIR
 10
1.0
 20
0.0
 30
0.0
  9
$UCSYDIR
 10
0.0
 20
1.0
 30
0.0
  9
$UCSORTHOREF
  2

  9
$UCSORTHOVIEW
 70
     0
  9
$UCSORGTOP
 10
0.0
 20
0.0
 30
0.0
  9
$UCSORGBOTTOM
 10
0.0
 20
0.0
 30
0.0
  9
$UCSORGLEFT
 10
0.0
 20
0.0
 30
0.0
  9
$UCSORGRIGHT
 10
0.0
 20
0.0
 30
0.0
  9
$UCSORGFRONT
 10
0.0
 20
0.0
 30
0.0
  9
$UCSORGBACK
 10
0.0
 20
0.0
 30
0.0
  9
$PUCSBASE
  2

  9
$PUCSNAME
  2

  9
$PUCSORG
 10
0.0
 20
0.0
 30
0.0
  9
$PUCSXDIR
 10
1.0
 20
0.0
 30
0.0
  9
$PUCSYDIR
 10
0.0
 20
1.0
 30
0.0
  9
$PUCSORTHOREF
  2

  9
$PUCSORTHOVIEW
 70
     0
  9
$PUCSORGTOP
 10
0.0
 20
0.0
 30
0.0
  9
$PUCSORGBOTTOM
 10
0.0
 20
0.0
 30
0.0
  9
$PUCSORGLEFT
 10
0.0
 20
0.0
 30
0.0
  9
$PUCSORGRIGHT
 10
0.0
 20
0.0
 30
0.0
  9
$PUCSORGFRONT
 10
0.0
 20
0.0
 30
0.0
  9
$PUCSORGBACK
 10
0.0
 20
0.0
 30
0.0
  9
$USERI1
 70
     0
  9
$USERI2
 70
     0
  9
$USERI3
 70
     0
  9
$USERI4
 70
     0
  9
$USERI5
 70
     0
  9
$USERR1
 40
0.0
  9
$USERR2
 40
0.0
  9
$USERR3
 40
0.0
  9
$USERR4
 40
0.0
  9
$USERR5
 40
0.0
  9
$WORLDVIEW
 70
     1
  9
$SHADEDGE
 70
     3
  9
$SHADEDIF
 70
    70
  9
$TILEMODE
 70
     1
  9
$MAXACTVP
 70
    64
  9
$PINSBASE
 10
0.0
 20
0.0
 30
0.0
  9
$PLIMCHECK
 70
     0
  9
$PEXTMIN
 10
1.000000000000000E+20
 20
1.000000000000000E+20
 30
1.000000000000000E+20
  9
$PEXTMAX
 10
-1.000000000000000E+20
 20
-1.000000000000000E+20
 30
-1.000000000000000E+20
  9
$PLIMMIN
 10
0.0
 20
0.0
  9
$PLIMMAX
 10
12.0
 20
9.0
  9
$UNITMODE
 70
     0
  9
$VISRETAIN
 70
     1
  9
$PLINEGEN
 70
     0
  9
$PSLTSCALE
 70
     1
  9
$TREEDEPTH
 70
  3020
  9
$CMLSTYLE
  2
Standard
  9
$CMLJUST
 70
     0
  9
$CMLSCALE
 40
1.0
  9
$PROXYGRAPHICS
 70
     1
  9
$MEASUREMENT
 70
     0
  9
$CELWEIGHT
370
    -1
  9
$ENDCAPS
280
     0
  9
$JOINSTYLE
280
     0
  9
$LWDISPLAY
290
     1
  9
$INSUNITS
 70
     1
  9
$HYPERLINKBASE
  1

  9
$STYLESHEET
  1

  9
$XEDIT
290
     1
  9
$CEPSNTYPE
380
     0
  9
$PSTYLEMODE
290
     1
  9
$FINGERPRINTGUID
  2
{E610E228-9E98-45B6-B95C-BB748AFF7E50}
  9
$VERSIONGUID
  2
{FAEB1C32-E019-11D5-929B-00C0DF256EC4}
  9
$EXTNAMES
290
     1
  9
$PSVPSCALE
 40
0.0
  9
$OLESTARTUP
290
     0
  9
$SORTENTS
280
   127
  9
$INDEXCTL
280
     0
  9
$HIDETEXT
280
     1
  9
$XCLIPFRAME
280
     2
  9
$HALOGAP
280
     0
  9
$OBSCOLOR
 70
   257
  9
$OBSLTYPE
280
     0
  9
$INTERSECTIONDISPLAY
280
     0
  9
$INTERSECTIONCOLOR
 70
   257
  9
$DIMASSOC
280
     2
  9
$PROJECTNAME
  1

  9
$CAMERADISPLAY
290
     0
  9
$LENSLENGTH
 40
50.0
  9
$CAMERAHEIGHT
 40
0.0
  9
$STEPSPERSEC
 40
2.0
  9
$STEPSIZE
 40
6.0
  9
$3DDWFPREC
 40
2.0
  9
$PSOLWIDTH
 40
0.25
  9
$PSOLHEIGHT
 40
4.0
  9
$LOFTANG1
 40
1.570796326794897
  9
$LOFTANG2
 40
1.570796326794897
  9
$LOFTMAG1
 40
0.0
  9
$LOFTMAG2
 40
0.0
  9
$LOFTPARAM
 70
     7
  9
$LOFTNORMALS
280
     1
  9
$LATITUDE
 40
37.795
  9
$LONGITUDE
 40
-122.394
  9
$NORTHDIRECTION
 40
0.0
  9
$TIMEZONE
 70
 -8000
  9
$LIGHTGLYPHDISPLAY
280
     1
  9
$TILEMODELIGHTSYNCH
280
     1
  9
$CMATERIAL
347
3C
  9
$SOLIDHIST
280
     1
  9
$SHOWHIST
280
     1
  9
$DWFFRAME
280
     2
  9
$DGNFRAME
280
     2
  9
$REALWORLDSCALE
290
     1
  9
$INTERFERECOLOR
 62
   256
  9
$CSHADOW
280
     0
  9
$SHADOWPLANELOCATION
 40
0.0
  0
ENDSEC
  0
SECTION
  2
CLASSES
  0
CLASS
  1
ACDBDICTIONARYWDFLT
  2
AcDbDictionaryWithDefault
  3
ObjectDBX Classes
 90
        0
 91
        4
280
     0
281
     0
  0
CLASS
  1
VISUALSTYLE
  2
AcDbVisualStyle
  3
ObjectDBX Classes
 90
     4095
 91
        4
280
     0
281
     0
  0
CLASS
  1
MATERIAL
  2
AcDbMaterial
  3
ObjectDBX Classes
 90
     1153
 91
        4
280
     0
281
     0
  0
CLASS
  1
SUN
  2
AcDbSun
  3
SCENEOE
 90
     1024
 91
        4
280
     0
281
     0
  0
ENDSEC
  0
SECTION
  2
TABLES
  0
TABLE
  2
VPORT
  5
8
330
0
100
AcDbSymbolTable
 70
     1
  0
VPORT
  5
29
330
8
100
AcDbSymbolTableRecord
100
AcDbViewportTableRecord
  2
*Active
 70
     0
 10
0.0
 20
0.0
 11
1.0
 21
1.0
 12
0.0
 22
0.0
 13
0.0
 23
0.0
 14
0.5
 24
0.5
 15
0.5
 25
0.5
 16
0.0
 26
0.0
 36
1.0
 17
200.0003055055556
 27
-149.9993471847223
 37
0.0
 40
299.9986943694446
 41
1.333341172873624
 42
50.0
 43
0.0
 44
0.0
 50
0.0
 51
0.0
 71
     0
 72
   100
 73
     1
 74
     3
 75
     0
 76
     0
 77
     0
 78
     0
281
     0
 65
     1
110
0.0
120
0.0
130
0.0
111
1.0
121
0.0
131
0.0
112
0.0
122
1.0
132
0.0
 79
     0
146
0.0
 60
     3
 61
     5
292
     1
282
     1
141
0.0
142
0.0
 63
   250
361
3F
  0
ENDTAB
  0
TABLE
  2
LTYPE
  5
5
330
0
100
AcDbSymbolTable
 70
     1
  0
LTYPE
  5
14
330
5
100
AcDbSymbolTableRecord
100
AcDbLinetypeTableRecord
  2
ByBlock
 70
     0
  3

 72
    65
 73
     0
 40
0.0
  0
LTYPE
  5
15
330
5
100
AcDbSymbolTableRecord
100
AcDbLinetypeTableRecord
  2
ByLayer
 70
     0
  3

 72
    65
 73
     0
 40
0.0
  0
LTYPE
  5
16
330
5
100
AcDbSymbolTableRecord
100
AcDbLinetypeTableRecord
  2
Continuous
 70
     0
  3
Solid line
 72
    65
 73
     0
 40
0.0
  0
ENDTAB
  0
TABLE
  2
LAYER
  5
2
330
0
100
AcDbSymbolTable
 70
     2
  0
LAYER
  5
10
330
2
100
AcDbSymbolTableRecord
100
AcDbLayerTableRecord
  2
0
 70
     0
 62
     7
  6
Continuous
370
    -3
390
F
347
3E
  0
LAYER
  5
40
330
2
100
AcDbSymbolTableRecord
100
AcDbLayerTableRecord
  2
Ebene 1
 70
     0
 62
     7
  6
Continuous
370
    -3
390
F
347
3E
  0
ENDTAB
  0
TABLE
  2
STYLE
  5
3
330
0
100
AcDbSymbolTable
 70
     1
  0
STYLE
  5
11
330
3
100
AcDbSymbolTableRecord
100
AcDbTextStyleTableRecord
  2
Standard
 70
     0
 40
0.0
 41
1.0
 50
0.0
 71
     0
 42
0.2
  3
txt
  4

  0
ENDTAB
  0
TABLE
  2
VIEW
  5
6
330
0
100
AcDbSymbolTable
 70
     0
  0
ENDTAB
  0
TABLE
  2
UCS
  5
7
330
0
100
AcDbSymbolTable
 70
     0
  0
ENDTAB
  0
TABLE
  2
APPID
  5
9
330
0
100
AcDbSymbolTable
 70
     1
  0
APPID
  5
12
330
9
100
AcDbSymbolTableRecord
100
AcDbRegAppTableRecord
  2
ACAD
 70
     0
  0
ENDTAB
  0
TABLE
  2
DIMSTYLE
  5
A
330
0
100
AcDbSymbolTable
 70
     1
100
AcDbDimStyleTable
  0
DIMSTYLE
105
27
330
A
100
AcDbSymbolTableRecord
100
AcDbDimStyleTableRecord
  2
Standard
 70
     0
178
     0
340
11
  0
ENDTAB
  0
TABLE
  2
BLOCK_RECORD
  5
1
330
0
100
AcDbSymbolTable
 70
    20
  0
BLOCK_RECORD
  5
1F
330
1
100
AcDbSymbolTableRecord
100
AcDbBlockTableRecord
  2
*Model_Space
340
22
 70
     0
280
     1
281
     0
  0
BLOCK_RECORD
  5
1B
330
1
100
AcDbSymbolTableRecord
100
AcDbBlockTableRecord
  2
*Paper_Space
340
1E
 70
     0
280
     1
281
     0
  0
BLOCK_RECORD
  5
23
330
1
100
AcDbSymbolTableRecord
100
AcDbBlockTableRecord
  2
*Paper_Space0
340
26
 70
     0
280
     1
281
     0
  0
BLOCK_RECORD
  5
42
330
1
100
AcDbSymbolTableRecord
100
AcDbBlockTableRecord
  2
block 2
340
0
102
{BLKREFS
331
43
102
}
 70
     0
280
     1
281
     0
  0
BLOCK_RECORD
  5
47
330
1
100
AcDbSymbolTableRecord
100
AcDbBlockTableRecord
  2
block 3
340
0
102
{BLKREFS
331
48
102
}
 70
     0
280
     1
281
     0
  0
BLOCK_RECORD
  5
4C
330
1
100
AcDbSymbolTableRecord
100
AcDbBlockTableRecord
  2
block 4
340
0
102
{BLKREFS
331
4D
102
}
 70
     0
280
     1
281
     0
  0
BLOCK_RECORD
  5
51
330
1
100
AcDbSymbolTableRecord
100
AcDbBlockTableRecord
  2
block 5
340
0
102
{BLKREFS
331
52
102
}
 70
     0
280
     1
281
     0
  0
BLOCK_RECORD
  5
56
330
1
100
AcDbSymbolTableRecord
100
AcDbBlockTableRecord
  2
block 6
340
0
102
{BLKREFS
331
57
102
}
 70
     0
280
     1
281
     0
  0
BLOCK_RECORD
  5
5B
330
1
100
AcDbSymbolTableRecord
100
AcDbBlockTableRecord
  2
block 7
340
0
102
{BLKREFS
331
5C
102
}
 70
     0
280
     1
281
     0
  0
BLOCK_RECORD
  5
60
330
1
100
AcDbSymbolTableRecord
100
AcDbBlockTableRecord
  2
block 8
340
0
102
{BLKREFS
331
61
102
}
 70
     0
280
     1
281
     0
  0
BLOCK_RECORD
  5
65
330
1
100
AcDbSymbolTableRecord
100
AcDbBlockTableRecord
  2
block 9
340
0
102
{BLKREFS
331
66
102
}
 70
     0
280
     1
281
     0
  0
BLOCK_RECORD
  5
6A
330
1
100
AcDbSymbolTableRecord
100
AcDbBlockTableRecord
  2
block 10
340
0
102
{BLKREFS
331
6B
102
}
 70
     0
280
     1
281
     0
  0
BLOCK_RECORD
  5
6F
330
1
100
AcDbSymbolTableRecord
100
AcDbBlockTableRecord
  2
block 11
340
0
102
{BLKREFS
331
70
102
}
 70
     0
280
     1
281
     0
  0
BLOCK_RECORD
  5
74
330
1
100
AcDbSymbolTableRecord
100
AcDbBlockTableRecord
  2
block 12
340
0
102
{BLKREFS
331
75
102
}
 70
     0
280
     1
281
     0
  0
BLOCK_RECORD
  5
79
330
1
100
AcDbSymbolTableRecord
100
AcDbBlockTableRecord
  2
block 13
340
0
102
{BLKREFS
331
7A
102
}
 70
     0
280
     1
281
     0
  0
BLOCK_RECORD
  5
7E
330
1
100
AcDbSymbolTableRecord
100
AcDbBlockTableRecord
  2
block 14
340
0
102
{BLKREFS
331
7F
102
}
 70
     0
280
     1
281
     0
  0
BLOCK_RECORD
  5
83
330
1
100
AcDbSymbolTableRecord
100
AcDbBlockTableRecord
  2
block 15
340
0
102
{BLKREFS
331
84
102
}
 70
     0
280
     1
281
     0
  0
BLOCK_RECORD
  5
88
330
1
100
AcDbSymbolTableRecord
100
AcDbBlockTableRecord
  2
block 16
340
0
102
{BLKREFS
331
89
102
}
 70
     0
280
     1
281
     0
  0
BLOCK_RECORD
  5
8D
330
1
100
AcDbSymbolTableRecord
100
AcDbBlockTableRecord
  2
block 17
340
0
102
{BLKREFS
331
8E
102
}
 70
     0
280
     1
281
     0
  0
BLOCK_RECORD
  5
92
330
1
100
AcDbSymbolTableRecord
100
AcDbBlockTableRecord
  2
block 18
340
0
102
{BLKREFS
331
93
102
}
 70
     0
280
     1
281
     0
  0
BLOCK_RECORD
  5
97
330
1
100
AcDbSymbolTableRecord
100
AcDbBlockTableRecord
  2
block 19
340
0
102
{BLKREFS
331
98
102
}
 70
     0
280
     1
281
     0
  0
BLOCK_RECORD
  5
9C
330
1
100
AcDbSymbolTableRecord
100
AcDbBlockTableRecord
  2
block 20
340
0
102
{BLKREFS
331
9D
102
}
 70
     0
280
     1
281
     0
  0
ENDTAB
  0
ENDSEC
  0
SECTION
  2
BLOCKS
  0
BLOCK
  5
20
330
1F
100
AcDbEntity
  8
0
100
AcDbBlockBegin
  2
*Model_Space
 70
     0
 10
0.0
 20
0.0
 30
0.0
  3
*Model_Space
  1

  0
ENDBLK
  5
21
330
1F
100
AcDbEntity
  8
0
100
AcDbBlockEnd
  0
BLOCK
  5
1C
330
1B
100
AcDbEntity
 67
     1
  8
0
100
AcDbBlockBegin
  2
*Paper_Space
 70
     0
 10
0.0
 20
0.0
 30
0.0
  3
*Paper_Space
  1

  0
ENDBLK
  5
1D
330
1B
100
AcDbEntity
 67
     1
  8
0
100
AcDbBlockEnd
  0
BLOCK
  5
24
330
23
100
AcDbEntity
  8
0
100
AcDbBlockBegin
  2
*Paper_Space0
 70
     0
 10
0.0
 20
0.0
 30
0.0
  3
*Paper_Space0
  1

  0
ENDBLK
  5
25
330
23
100
AcDbEntity
  8
0
100
AcDbBlockEnd
  0
BLOCK
  5
44
330
42
100
AcDbEntity
  8
0
100
AcDbBlockBegin
  2
block 2
 70
     0
 10
0.0
 20
0.0
 30
0.0
  3
block 2
  1

  0
SPLINE
  5
46
330
42
100
AcDbEntity
  8
Ebene 1
 62
     7
420
 16777215
370
    35
100
AcDbSpline
210
0.0
220
0.0
230
1.0
 70
    11
 71
     3
 72
    20
 73
    16
 74
     0
 42
0.0000000001
 43
0.0000000001
 12
1.0
 22
0.0
 32
0.0
 13
1.0
 23
0.0
 33
0.0
 40
0.0
 40
0.0
 40
0.0
 40
0.0
 40
1.0
 40
1.0
 40
1.0
 40
2.0
 40
2.0
 40
2.0
 40
3.0
 40
3.0
 40
3.0
 40
4.0
 40
4.0
 40
4.0
 40
5.0
 40
5.0
 40
5.0
 40
5.0
 10
161.8431447360333
 20
-197.4419773861673
 30
0.0
 10
161.8431447360333
 20
-191.4820533813165
 30
0.0
 10
166.6746177535969
 20
-186.6505803637496
 30
0.0
 10
172.6345417584484
 20
-186.6505803637496
 30
0.0
 10
178.5944657632993
 20
-186.6505803637496
 30
0.0
 10
183.4259387808636
 20
-191.4820533813165
 30
0.0
 10
183.4259387808636
 20
-197.4419773861673
 30
0.0
 10
183.4259387808636
 20
-203.4019013910169
 30
0.0
 10
178.5944657632993
 20
-208.2333744085838
 30
0.0
 10
172.6345417584484
 20
-208.2333744085838
 30
0.0
 10
166.6746177535969
 20
-208.2333744085838
 30
0.0
 10
161.8431447360333
 20
-203.4019013910169
 30
0.0
 10
161.8431447360333
 20
-197.4419773861673
 30
0.0
 10
161.8431447360333
 20
-197.4419773861673
 30
0.0
 10
161.8431447360333
 20
-197.4419773861673
 30
0.0
 10
161.8431447360333
 20
-197.4419773861673
 30
0.0
  0
ENDBLK
  5
45
330
42
100
AcDbEntity
  8
0
100
AcDbBlockEnd
  0
BLOCK
  5
49
330
47
100
AcDbEntity
  8
0
100
AcDbBlockBegin
  2
block 3
 70
     0
 10
0.0
 20
0.0
 30
0.0
  3
block 3
  1

  0
SPLINE
  5
4B
330
47
100
AcDbEntity
  8
Ebene 1
 62
     7
420
 16777215
370
    35
100
AcDbSpline
210
0.0
220
0.0
230
1.0
 70
    11
 71
     3
 72
    20
 73
    16
 74
     0
 42
0.0000000001
 43
0.0000000001
 12
1.0
 22
0.0
 32
0.0
 13
1.0
 23
0.0
 33
0.0
 40
0.0
 40
0.0
 40
0.0
 40
0.0
 40
1.0
 40
1.0
 40
1.0
 40
2.0
 40
2.0
 40
2.0
 40
3.0
 40
3.0
 40
3.0
 40
4.0
 40
4.0
 40
4.0
 40
5.0
 40
5.0
 40
5.0
 40
5.0
 10
189.1813505261559
 20
-197.4419773861673
 30
0.0
 10
189.1813505261559
 20
-191.4820533813165
 30
0.0
 10
194.0128235437196
 20
-186.6505803637496
 30
0.0
 10
199.9727475485711
 20
-186.6505803637496
 30
0.0
 10
205.9326715534219
 20
-186.6505803637496
 30
0.0
 10
210.7641445709863
 20
-191.4820533813165
 30
0.0
 10
210.7641445709863
 20
-197.4419773861673
 30
0.0
 10
210.7641445709863
 20
-203.4019013910169
 30
0.0
 10
205.9326715534219
 20
-208.2333744085838
 30
0.0
 10
199.9727475485711
 20
-208.2333744085838
 30
0.0
 10
194.0128235437196
 20
-208.2333744085838
 30
0.0
 10
189.1813505261559
 20
-203.4019013910169
 30
0.0
 10
189.1813505261559
 20
-197.4419773861673
 30
0.0
 10
189.1813505261559
 20
-197.4419773861673
 30
0.0
 10
189.1813505261559
 20
-197.4419773861673
 30
0.0
 10
189.1813505261559
 20
-197.4419773861673
 30
0.0
  0
ENDBLK
  5
4A
330
47
100
AcDbEntity
  8
0
100
AcDbBlockEnd
  0
BLOCK
  5
4E
330
4C
100
AcDbEntity
  8
0
100
AcDbBlockBegin
  2
block 4
 70
     0
 10
0.0
 20
0.0
 30
0.0
  3
block 4
  1

  0
SPLINE
  5
50
330
4C
100
AcDbEntity
  8
Ebene 1
 62
     7
420
 16777215
370
    35
100
AcDbSpline
210
0.0
220
0.0
230
1.0
 70
    11
 71
     3
 72
    20
 73
    16
 74
     0
 42
0.0000000001
 43
0.0000000001
 12
1.0
 22
0.0
 32
0.0
 13
1.0
 23
0.0
 33
0.0
 40
0.0
 40
0.0
 40
0.0
 40
0.0
 40
1.0
 40
1.0
 40
1.0
 40
2.0
 40
2.0
 40
2.0
 40
3.0
 40
3.0
 40
3.0
 40
4.0
 40
4.0
 40
4.0
 40
5.0
 40
5.0
 40
5.0
 40
5.0
 10
216.5195563162785
 20
-197.4419773861673
 30
0.0
 10
216.5195563162785
 20
-191.4820533813165
 30
0.0
 10
221.3510293338422
 20
-186.6505803637496
 30
0.0
 10
227.3109533386937
 20
-186.6505803637496
 30
0.0
 10
233.2708773435446
 20
-186.6505803637496
 30
0.0
 10
238.1023503611089
 20
-191.4820533813165
 30
0.0
 10
238.1023503611089
 20
-197.4419773861673
 30
0.0
 10
238.1023503611089
 20
-203.4019013910169
 30
0.0
 10
233.2708773435446
 20
-208.2333744085838
 30
0.0
 10
227.3109533386937
 20
-208.2333744085838
 30
0.0
 10
221.3510293338422
 20
-208.2333744085838
 30
0.0
 10
216.5195563162785
 20
-203.4019013910169
 30
0.0
 10
216.5195563162785
 20
-197.4419773861673
 30
0.0
 10
216.5195563162785
 20
-197.4419773861673
 30
0.0
 10
216.5195563162785
 20
-197.4419773861673
 30
0.0
 10
216.5195563162785
 20
-197.4419773861673
 30
0.0
  0
ENDBLK
  5
4F
330
4C
100
AcDbEntity
  8
0
100
AcDbBlockEnd
  0
BLOCK
  5
53
330
51
100
AcDbEntity
  8
0
100
AcDbBlockBegin
  2
block 5
 70
     0
 10
0.0
 20
0.0
 30
0.0
  3
block 5
  1

  0
SPLINE
  5
55
330
51
100
AcDbEntity
  8
Ebene 1
 62
     7
420
 16777215
370
    35
100
AcDbSpline
210
0.0
220
0.0
230
1.0
 70
    11
 71
     3
 72
    20
 73
    16
 74
     0
 42
0.0000000001
 43
0.0000000001
 12
1.0
 22
0.0
 32
0.0
 13
1.0
 23
0.0
 33
0.0
 40
0.0
 40
0.0
 40
0.0
 40
0.0
 40
1.0
 40
1.0
 40
1.0
 40
2.0
 40
2.0
 40
2.0
 40
3.0
 40
3.0
 40
3.0
 40
4.0
 40
4.0
 40
4.0
 40
5.0
 40
5.0
 40
5.0
 40
5.0
 10
148.1740418409716
 20
-173.7663468128643
 30
0.0
 10
148.1740418409716
 20
-167.8064228080148
 30
0.0
 10
153.0055148585359
 20
-162.9749497904479
 30
0.0
 10
158.9654388633868
 20
-162.9749497904479
 30
0.0
 10
164.9253628682376
 20
-162.9749497904479
 30
0.0
 10
169.7568358858058
 20
-167.8064228080148
 30
0.0
 10
169.7568358858058
 20
-173.7663468128643
 30
0.0
 10
169.7568358858058
 20
-179.7262708177152
 30
0.0
 10
164.9253628682376
 20
-184.5577438352821
 30
0.0
 10
158.9654388633868
 20
-184.5577438352821
 30
0.0
 10
153.0055148585359
 20
-184.5577438352821
 30
0.0
 10
148.1740418409716
 20
-179.7262708177152
 30
0.0
 10
148.1740418409716
 20
-173.7663468128643
 30
0.0
 10
148.1740418409716
 20
-173.7663468128643
 30
0.0
 10
148.1740418409716
 20
-173.7663468128643
 30
0.0
 10
148.1740418409716
 20
-173.7663468128643
 30
0.0
  0
ENDBLK
  5
54
330
51
100
AcDbEntity
  8
0
100
AcDbBlockEnd
  0
BLOCK
  5
58
330
56
100
AcDbEntity
  8
0
100
AcDbBlockBegin
  2
block 6
 70
     0
 10
0.0
 20
0.0
 30
0.0
  3
block 6
  1

  0
SPLINE
  5
5A
330
56
100
AcDbEntity
  8
Ebene 1
 62
     7
420
 16777215
370
    35
100
AcDbSpline
210
0.0
220
0.0
230
1.0
 70
    11
 71
     3
 72
    20
 73
    16
 74
     0
 42
0.0000000001
 43
0.0000000001
 12
1.0
 22
0.0
 32
0.0
 13
1.0
 23
0.0
 33
0.0
 40
0.0
 40
0.0
 40
0.0
 40
0.0
 40
1.0
 40
1.0
 40
1.0
 40
2.0
 40
2.0
 40
2.0
 40
3.0
 40
3.0
 40
3.0
 40
4.0
 40
4.0
 40
4.0
 40
5.0
 40
5.0
 40
5.0
 40
5.0
 10
175.5122476310943
 20
-173.7663468128643
 30
0.0
 10
175.5122476310943
 20
-167.8064228080148
 30
0.0
 10
180.3437206486586
 20
-162.9749497904479
 30
0.0
 10
186.3036446535094
 20
-162.9749497904479
 30
0.0
 10
192.2635686583609
 20
-162.9749497904479
 30
0.0
 10
197.0950416759285
 20
-167.8064228080148
 30
0.0
 10
197.0950416759285
 20
-173.7663468128643
 30
0.0
 10
197.0950416759285
 20
-179.7262708177152
 30
0.0
 10
192.2635686583609
 20
-184.5577438352821
 30
0.0
 10
186.3036446535094
 20
-184.5577438352821
 30
0.0
 10
180.3437206486586
 20
-184.5577438352821
 30
0.0
 10
175.5122476310943
 20
-179.7262708177152
 30
0.0
 10
175.5122476310943
 20
-173.7663468128643
 30
0.0
 10
175.5122476310943
 20
-173.7663468128643
 30
0.0
 10
175.5122476310943
 20
-173.7663468128643
 30
0.0
 10
175.5122476310943
 20
-173.7663468128643
 30
0.0
  0
ENDBLK
  5
59
330
56
100
AcDbEntity
  8
0
100
AcDbBlockEnd
  0
BLOCK
  5
5D
330
5B
100
AcDbEntity
  8
0
100
AcDbBlockBegin
  2
block 7
 70
     0
 10
0.0
 20
0.0
 30
0.0
  3
block 7
  1

  0
SPLINE
  5
5F
330
5B
100
AcDbEntity
  8
Ebene 1
 62
     7
420
 16777215
370
    35
100
AcDbSpline
210
0.0
220
0.0
230
1.0
 70
    11
 71
     3
 72
    20
 73
    16
 74
     0
 42
0.0000000001
 43
0.0000000001
 12
1.0
 22
0.0
 32
0.0
 13
1.0
 23
0.0
 33
0.0
 40
0.0
 40
0.0
 40
0.0
 40
0.0
 40
1.0
 40
1.0
 40
1.0
 40
2.0
 40
2.0
 40
2.0
 40
3.0
 40
3.0
 40
3.0
 40
4.0
 40
4.0
 40
4.0
 40
5.0
 40
5.0
 40
5.0
 40
5.0
 10
202.8504534212169
 20
-173.7663468128643
 30
0.0
 10
202.8504534212169
 20
-167.8064228080148
 30
0.0
 10
207.6819264387812
 20
-162.9749497904479
 30
0.0
 10
213.6418504436321
 20
-162.9749497904479
 30
0.0
 10
219.6017744484829
 20
-162.9749497904479
 30
0.0
 10
224.4332474660472
 20
-167.8064228080148
 30
0.0
 10
224.4332474660472
 20
-173.7663468128643
 30
0.0
 10
224.4332474660472
 20
-179.7262708177152
 30
0.0
 10
219.6017744484829
 20
-184.5577438352821
 30
0.0
 10
213.6418504436321
 20
-184.5577438352821
 30
0.0
 10
207.6819264387812
 20
-184.5577438352821
 30
0.0
 10
202.8504534212169
 20
-179.7262708177152
 30
0.0
 10
202.8504534212169
 20
-173.7663468128643
 30
0.0
 10
202.8504534212169
 20
-173.7663468128643
 30
0.0
 10
202.8504534212169
 20
-173.7663468128643
 30
0.0
 10
202.8504534212169
 20
-173.7663468128643
 30
0.0
  0
ENDBLK
  5
5E
330
5B
100
AcDbEntity
  8
0
100
AcDbBlockEnd
  0
BLOCK
  5
62
330
60
100
AcDbEntity
  8
0
100
AcDbBlockBegin
  2
block 8
 70
     0
 10
0.0
 20
0.0
 30
0.0
  3
block 8
  1

  0
SPLINE
  5
64
330
60
100
AcDbEntity
  8
Ebene 1
 62
     7
420
 16777215
370
    35
100
AcDbSpline
210
0.0
220
0.0
230
1.0
 70
    11
 71
     3
 72
    20
 73
    16
 74
     0
 42
0.0000000001
 43
0.0000000001
 12
1.0
 22
0.0
 32
0.0
 13
1.0
 23
0.0
 33
0.0
 40
0.0
 40
0.0
 40
0.0
 40
0.0
 40
1.0
 40
1.0
 40
1.0
 40
2.0
 40
2.0
 40
2.0
 40
3.0
 40
3.0
 40
3.0
 40
4.0
 40
4.0
 40
4.0
 40
5.0
 40
5.0
 40
5.0
 40
5.0
 10
230.1886592113395
 20
-173.7663468128643
 30
0.0
 10
230.1886592113395
 20
-167.8064228080148
 30
0.0
 10
235.0201322289039
 20
-162.9749497904479
 30
0.0
 10
240.9800562337547
 20
-162.9749497904479
 30
0.0
 10
246.9399802386055
 20
-162.9749497904479
 30
0.0
 10
251.7714532561699
 20
-167.8064228080148
 30
0.0
 10
251.7714532561699
 20
-173.7663468128643
 30
0.0
 10
251.7714532561699
 20
-179.7262708177152
 30
0.0
 10
246.9399802386055
 20
-184.5577438352821
 30
0.0
 10
240.9800562337547
 20
-184.5577438352821
 30
0.0
 10
235.0201322289039
 20
-184.5577438352821
 30
0.0
 10
230.1886592113395
 20
-179.7262708177152
 30
0.0
 10
230.1886592113395
 20
-173.7663468128643
 30
0.0
 10
230.1886592113395
 20
-173.7663468128643
 30
0.0
 10
230.1886592113395
 20
-173.7663468128643
 30
0.0
 10
230.1886592113395
 20
-173.7663468128643
 30
0.0
  0
ENDBLK
  5
63
330
60
100
AcDbEntity
  8
0
100
AcDbBlockEnd
  0
BLOCK
  5
67
330
65
100
AcDbEntity
  8
0
100
AcDbBlockBegin
  2
block 9
 70
     0
 10
0.0
 20
0.0
 30
0.0
  3
block 9
  1

  0
SPLINE
  5
69
330
65
100
AcDbEntity
  8
Ebene 1
 62
     7
420
 16777215
370
    35
100
AcDbSpline
210
0.0
220
0.0
230
1.0
 70
    11
 71
     3
 72
    20
 73
    16
 74
     0
 42
0.0000000001
 43
0.0000000001
 12
1.0
 22
0.0
 32
0.0
 13
1.0
 23
0.0
 33
0.0
 40
0.0
 40
0.0
 40
0.0
 40
0.0
 40
1.0
 40
1.0
 40
1.0
 40
2.0
 40
2.0
 40
2.0
 40
3.0
 40
3.0
 40
3.0
 40
4.0
 40
4.0
 40
4.0
 40
5.0
 40
5.0
 40
5.0
 40
5.0
 10
134.5049389459106
 20
-150.0907661047385
 30
0.0
 10
134.5049389459106
 20
-144.1308420998864
 30
0.0
 10
139.3364119634743
 20
-139.2993690823214
 30
0.0
 10
145.2963359683258
 20
-139.2993690823214
 30
0.0
 10
151.256259973177
 20
-139.2993690823214
 30
0.0
 10
156.0877329907442
 20
-144.1308420998864
 30
0.0
 10
156.0877329907442
 20
-150.0907661047385
 30
0.0
 10
156.0877329907442
 20
-156.0506901095894
 30
0.0
 10
151.256259973177
 20
-160.882163127155
 30
0.0
 10
145.2963359683258
 20
-160.882163127155
 30
0.0
 10
139.3364119634743
 20
-160.882163127155
 30
0.0
 10
134.5049389459106
 20
-156.0506901095894
 30
0.0
 10
134.5049389459106
 20
-150.0907661047385
 30
0.0
 10
134.5049389459106
 20
-150.0907661047385
 30
0.0
 10
134.5049389459106
 20
-150.0907661047385
 30
0.0
 10
134.5049389459106
 20
-150.0907661047385
 30
0.0
  0
ENDBLK
  5
68
330
65
100
AcDbEntity
  8
0
100
AcDbBlockEnd
  0
BLOCK
  5
6C
330
6A
100
AcDbEntity
  8
0
100
AcDbBlockBegin
  2
block 10
 70
     0
 10
0.0
 20
0.0
 30
0.0
  3
block 10
  1

  0
SPLINE
  5
6E
330
6A
100
AcDbEntity
  8
Ebene 1
 62
     7
420
 16777215
370
    35
100
AcDbSpline
210
0.0
220
0.0
230
1.0
 70
    11
 71
     3
 72
    20
 73
    16
 74
     0
 42
0.0000000001
 43
0.0000000001
 12
1.0
 22
0.0
 32
0.0
 13
1.0
 23
0.0
 33
0.0
 40
0.0
 40
0.0
 40
0.0
 40
0.0
 40
1.0
 40
1.0
 40
1.0
 40
2.0
 40
2.0
 40
2.0
 40
3.0
 40
3.0
 40
3.0
 40
4.0
 40
4.0
 40
4.0
 40
5.0
 40
5.0
 40
5.0
 40
5.0
 10
161.8431447360333
 20
-150.0907661047385
 30
0.0
 10
161.8431447360333
 20
-144.1308420998864
 30
0.0
 10
166.6746177535969
 20
-139.2993690823214
 30
0.0
 10
172.6345417584484
 20
-139.2993690823214
 30
0.0
 10
178.5944657632993
 20
-139.2993690823214
 30
0.0
 10
183.4259387808636
 20
-144.1308420998864
 30
0.0
 10
183.4259387808636
 20
-150.0907661047385
 30
0.0
 10
183.4259387808636
 20
-156.0506901095894
 30
0.0
 10
178.5944657632993
 20
-160.882163127155
 30
0.0
 10
172.6345417584484
 20
-160.882163127155
 30
0.0
 10
166.6746177535969
 20
-160.882163127155
 30
0.0
 10
161.8431447360333
 20
-156.0506901095894
 30
0.0
 10
161.8431447360333
 20
-150.0907661047385
 30
0.0
 10
161.8431447360333
 20
-150.0907661047385
 30
0.0
 10
161.8431447360333
 20
-150.0907661047385
 30
0.0
 10
161.8431447360333
 20
-150.0907661047385
 30
0.0
  0
ENDBLK
  5
6D
330
6A
100
AcDbEntity
  8
0
100
AcDbBlockEnd
  0
BLOCK
  5
71
330
6F
100
AcDbEntity
  8
0
100
AcDbBlockBegin
  2
block 11
 70
     0
 10
0.0
 20
0.0
 30
0.0
  3
block 11
  1

  0
SPLINE
  5
73
330
6F
100
AcDbEntity
  8
Ebene 1
 62
     7
420
 16777215
370
    35
100
AcDbSpline
210
0.0
220
0.0
230
1.0
 70
    11
 71
     3
 72
    20
 73
    16
 74
     0
 42
0.0000000001
 43
0.0000000001
 12
1.0
 22
0.0
 32
0.0
 13
1.0
 23
0.0
 33
0.0
 40
0.0
 40
0.0
 40
0.0
 40
0.0
 40
1.0
 40
1.0
 40
1.0
 40
2.0
 40
2.0
 40
2.0
 40
3.0
 40
3.0
 40
3.0
 40
4.0
 40
4.0
 40
4.0
 40
5.0
 40
5.0
 40
5.0
 40
5.0
 10
189.1813505261559
 20
-150.0907661047385
 30
0.0
 10
189.1813505261559
 20
-144.1308420998864
 30
0.0
 10
194.0128235437196
 20
-139.2993690823214
 30
0.0
 10
199.9727475485711
 20
-139.2993690823214
 30
0.0
 10
205.9326715534219
 20
-139.2993690823214
 30
0.0
 10
210.7641445709863
 20
-144.1308420998864
 30
0.0
 10
210.7641445709863
 20
-150.0907661047385
 30
0.0
 10
210.7641445709863
 20
-156.0506901095894
 30
0.0
 10
205.9326715534219
 20
-160.882163127155
 30
0.0
 10
199.9727475485711
 20
-160.882163127155
 30
0.0
 10
194.0128235437196
 20
-160.882163127155
 30
0.0
 10
189.1813505261559
 20
-156.0506901095894
 30
0.0
 10
189.1813505261559
 20
-150.0907661047385
 30
0.0
 10
189.1813505261559
 20
-150.0907661047385
 30
0.0
 10
189.1813505261559
 20
-150.0907661047385
 30
0.0
 10
189.1813505261559
 20
-150.0907661047385
 30
0.0
  0
ENDBLK
  5
72
330
6F
100
AcDbEntity
  8
0
100
AcDbBlockEnd
  0
BLOCK
  5
76
330
74
100
AcDbEntity
  8
0
100
AcDbBlockBegin
  2
block 12
 70
     0
 10
0.0
 20
0.0
 30
0.0
  3
block 12
  1

  0
SPLINE
  5
78
330
74
100
AcDbEntity
  8
Ebene 1
 62
     7
420
 16777215
370
    35
100
AcDbSpline
210
0.0
220
0.0
230
1.0
 70
    11
 71
     3
 72
    20
 73
    16
 74
     0
 42
0.0000000001
 43
0.0000000001
 12
1.0
 22
0.0
 32
0.0
 13
1.0
 23
0.0
 33
0.0
 40
0.0
 40
0.0
 40
0.0
 40
0.0
 40
1.0
 40
1.0
 40
1.0
 40
2.0
 40
2.0
 40
2.0
 40
3.0
 40
3.0
 40
3.0
 40
4.0
 40
4.0
 40
4.0
 40
5.0
 40
5.0
 40
5.0
 40
5.0
 10
216.5195563162785
 20
-150.0907661047385
 30
0.0
 10
216.5195563162785
 20
-144.1308420998864
 30
0.0
 10
221.3510293338422
 20
-139.2993690823214
 30
0.0
 10
227.3109533386937
 20
-139.2993690823214
 30
0.0
 10
233.2708773435446
 20
-139.2993690823214
 30
0.0
 10
238.1023503611089
 20
-144.1308420998864
 30
0.0
 10
238.1023503611089
 20
-150.0907661047385
 30
0.0
 10
238.1023503611089
 20
-156.0506901095894
 30
0.0
 10
233.2708773435446
 20
-160.882163127155
 30
0.0
 10
227.3109533386937
 20
-160.882163127155
 30
0.0
 10
221.3510293338422
 20
-160.882163127155
 30
0.0
 10
216.5195563162785
 20
-156.0506901095894
 30
0.0
 10
216.5195563162785
 20
-150.0907661047385
 30
0.0
 10
216.5195563162785
 20
-150.0907661047385
 30
0.0
 10
216.5195563162785
 20
-150.0907661047385
 30
0.0
 10
216.5195563162785
 20
-150.0907661047385
 30
0.0
  0
ENDBLK
  5
77
330
74
100
AcDbEntity
  8
0
100
AcDbBlockEnd
  0
BLOCK
  5
7B
330
79
100
AcDbEntity
  8
0
100
AcDbBlockBegin
  2
block 13
 70
     0
 10
0.0
 20
0.0
 30
0.0
  3
block 13
  1

  0
SPLINE
  5
7D
330
79
100
AcDbEntity
  8
Ebene 1
 62
     7
420
 16777215
370
    35
100
AcDbSpline
210
0.0
220
0.0
230
1.0
 70
    11
 71
     3
 72
    20
 73
    16
 74
     0
 42
0.0000000001
 43
0.0000000001
 12
1.0
 22
0.0
 32
0.0
 13
1.0
 23
0.0
 33
0.0
 40
0.0
 40
0.0
 40
0.0
 40
0.0
 40
1.0
 40
1.0
 40
1.0
 40
2.0
 40
2.0
 40
2.0
 40
3.0
 40
3.0
 40
3.0
 40
4.0
 40
4.0
 40
4.0
 40
5.0
 40
5.0
 40
5.0
 40
5.0
 10
243.8577621064011
 20
-150.0907661047385
 30
0.0
 10
243.8577621064011
 20
-144.1308420998864
 30
0.0
 10
248.6892351239649
 20
-139.2993690823214
 30
0.0
 10
254.6491591288163
 20
-139.2993690823214
 30
0.0
 10
260.6090831336672
 20
-139.2993690823214
 30
0.0
 10
265.4405561512315
 20
-144.1308420998864
 30
0.0
 10
265.4405561512315
 20
-150.0907661047385
 30
0.0
 10
265.4405561512315
 20
-156.0506901095894
 30
0.0
 10
260.6090831336672
 20
-160.882163127155
 30
0.0
 10
254.6491591288163
 20
-160.882163127155
 30
0.0
 10
248.6892351239649
 20
-160.882163127155
 30
0.0
 10
243.8577621064011
 20
-156.0506901095894
 30
0.0
 10
243.8577621064011
 20
-150.0907661047385
 30
0.0
 10
243.8577621064011
 20
-150.0907661047385
 30
0.0
 10
243.8577621064011
 20
-150.0907661047385
 30
0.0
 10
243.8577621064011
 20
-150.0907661047385
 30
0.0
  0
ENDBLK
  5
7C
330
79
100
AcDbEntity
  8
0
100
AcDbBlockEnd
  0
BLOCK
  5
80
330
7E
100
AcDbEntity
  8
0
100
AcDbBlockBegin
  2
block 14
 70
     0
 10
0.0
 20
0.0
 30
0.0
  3
block 14
  1

  0
SPLINE
  5
82
330
7E
100
AcDbEntity
  8
Ebene 1
 62
     7
420
 16777215
370
    35
100
AcDbSpline
210
0.0
220
0.0
230
1.0
 70
    11
 71
     3
 72
    20
 73
    16
 74
     0
 42
0.0000000001
 43
0.0000000001
 12
1.0
 22
0.0
 32
0.0
 13
1.0
 23
0.0
 33
0.0
 40
0.0
 40
0.0
 40
0.0
 40
0.0
 40
1.0
 40
1.0
 40
1.0
 40
2.0
 40
2.0
 40
2.0
 40
3.0
 40
3.0
 40
3.0
 40
4.0
 40
4.0
 40
4.0
 40
5.0
 40
5.0
 40
5.0
 40
5.0
 10
148.1740418409716
 20
-126.4151355314368
 30
0.0
 10
148.1740418409716
 20
-120.455211526586
 30
0.0
 10
153.0055148585359
 20
-115.6237385090197
 30
0.0
 10
158.9654388633868
 20
-115.6237385090197
 30
0.0
 10
164.9253628682376
 20
-115.6237385090197
 30
0.0
 10
169.7568358858058
 20
-120.455211526586
 30
0.0
 10
169.7568358858058
 20
-126.4151355314368
 30
0.0
 10
169.7568358858058
 20
-132.375059536287
 30
0.0
 10
164.9253628682376
 20
-137.2065325538539
 30
0.0
 10
158.9654388633868
 20
-137.2065325538539
 30
0.0
 10
153.0055148585359
 20
-137.2065325538539
 30
0.0
 10
148.1740418409716
 20
-132.375059536287
 30
0.0
 10
148.1740418409716
 20
-126.4151355314368
 30
0.0
 10
148.1740418409716
 20
-126.4151355314368
 30
0.0
 10
148.1740418409716
 20
-126.4151355314368
 30
0.0
 10
148.1740418409716
 20
-126.4151355314368
 30
0.0
  0
ENDBLK
  5
81
330
7E
100
AcDbEntity
  8
0
100
AcDbBlockEnd
  0
BLOCK
  5
85
330
83
100
AcDbEntity
  8
0
100
AcDbBlockBegin
  2
block 15
 70
     0
 10
0.0
 20
0.0
 30
0.0
  3
block 15
  1

  0
SPLINE
  5
87
330
83
100
AcDbEntity
  8
Ebene 1
 62
     7
420
 16777215
370
    35
100
AcDbSpline
210
0.0
220
0.0
230
1.0
 70
    11
 71
     3
 72
    20
 73
    16
 74
     0
 42
0.0000000001
 43
0.0000000001
 12
1.0
 22
0.0
 32
0.0
 13
1.0
 23
0.0
 33
0.0
 40
0.0
 40
0.0
 40
0.0
 40
0.0
 40
1.0
 40
1.0
 40
1.0
 40
2.0
 40
2.0
 40
2.0
 40
3.0
 40
3.0
 40
3.0
 40
4.0
 40
4.0
 40
4.0
 40
5.0
 40
5.0
 40
5.0
 40
5.0
 10
175.5122476310943
 20
-126.4151355314368
 30
0.0
 10
175.5122476310943
 20
-120.455211526586
 30
0.0
 10
180.3437206486586
 20
-115.6237385090197
 30
0.0
 10
186.3036446535094
 20
-115.6237385090197
 30
0.0
 10
192.2635686583609
 20
-115.6237385090197
 30
0.0
 10
197.0950416759285
 20
-120.455211526586
 30
0.0
 10
197.0950416759285
 20
-126.4151355314368
 30
0.0
 10
197.0950416759285
 20
-132.375059536287
 30
0.0
 10
192.2635686583609
 20
-137.2065325538539
 30
0.0
 10
186.3036446535094
 20
-137.2065325538539
 30
0.0
 10
180.3437206486586
 20
-137.2065325538539
 30
0.0
 10
175.5122476310943
 20
-132.375059536287
 30
0.0
 10
175.5122476310943
 20
-126.4151355314368
 30
0.0
 10
175.5122476310943
 20
-126.4151355314368
 30
0.0
 10
175.5122476310943
 20
-126.4151355314368
 30
0.0
 10
175.5122476310943
 20
-126.4151355314368
 30
0.0
  0
ENDBLK
  5
86
330
83
100
AcDbEntity
  8
0
100
AcDbBlockEnd
  0
BLOCK
  5
8A
330
88
100
AcDbEntity
  8
0
100
AcDbBlockBegin
  2
block 16
 70
     0
 10
0.0
 20
0.0
 30
0.0
  3
block 16
  1

  0
SPLINE
  5
8C
330
88
100
AcDbEntity
  8
Ebene 1
 62
     7
420
 16777215
370
    35
100
AcDbSpline
210
0.0
220
0.0
230
1.0
 70
    11
 71
     3
 72
    20
 73
    16
 74
     0
 42
0.0000000001
 43
0.0000000001
 12
1.0
 22
0.0
 32
0.0
 13
1.0
 23
0.0
 33
0.0
 40
0.0
 40
0.0
 40
0.0
 40
0.0
 40
1.0
 40
1.0
 40
1.0
 40
2.0
 40
2.0
 40
2.0
 40
3.0
 40
3.0
 40
3.0
 40
4.0
 40
4.0
 40
4.0
 40
5.0
 40
5.0
 40
5.0
 40
5.0
 10
202.8504534212169
 20
-126.4151355314368
 30
0.0
 10
202.8504534212169
 20
-120.455211526586
 30
0.0
 10
207.6819264387812
 20
-115.6237385090197
 30
0.0
 10
213.6418504436321
 20
-115.6237385090197
 30
0.0
 10
219.6017744484829
 20
-115.6237385090197
 30
0.0
 10
224.4332474660472
 20
-120.455211526586
 30
0.0
 10
224.4332474660472
 20
-126.4151355314368
 30
0.0
 10
224.4332474660472
 20
-132.375059536287
 30
0.0
 10
219.6017744484829
 20
-137.2065325538539
 30
0.0
 10
213.6418504436321
 20
-137.2065325538539
 30
0.0
 10
207.6819264387812
 20
-137.2065325538539
 30
0.0
 10
202.8504534212169
 20
-132.375059536287
 30
0.0
 10
202.8504534212169
 20
-126.4151355314368
 30
0.0
 10
202.8504534212169
 20
-126.4151355314368
 30
0.0
 10
202.8504534212169
 20
-126.4151355314368
 30
0.0
 10
202.8504534212169
 20
-126.4151355314368
 30
0.0
  0
ENDBLK
  5
8B
330
88
100
AcDbEntity
  8
0
100
AcDbBlockEnd
  0
BLOCK
  5
8F
330
8D
100
AcDbEntity
  8
0
100
AcDbBlockBegin
  2
block 17
 70
     0
 10
0.0
 20
0.0
 30
0.0
  3
block 17
  1

  0
SPLINE
  5
91
330
8D
100
AcDbEntity
  8
Ebene 1
 62
     7
420
 16777215
370
    35
100
AcDbSpline
210
0.0
220
0.0
230
1.0
 70
    11
 71
     3
 72
    20
 73
    16
 74
     0
 42
0.0000000001
 43
0.0000000001
 12
1.0
 22
0.0
 32
0.0
 13
1.0
 23
0.0
 33
0.0
 40
0.0
 40
0.0
 40
0.0
 40
0.0
 40
1.0
 40
1.0
 40
1.0
 40
2.0
 40
2.0
 40
2.0
 40
3.0
 40
3.0
 40
3.0
 40
4.0
 40
4.0
 40
4.0
 40
5.0
 40
5.0
 40
5.0
 40
5.0
 10
230.1886592113395
 20
-126.4151355314368
 30
0.0
 10
230.1886592113395
 20
-120.455211526586
 30
0.0
 10
235.0201322289039
 20
-115.6237385090197
 30
0.0
 10
240.9800562337547
 20
-115.6237385090197
 30
0.0
 10
246.9399802386055
 20
-115.6237385090197
 30
0.0
 10
251.7714532561699
 20
-120.455211526586
 30
0.0
 10
251.7714532561699
 20
-126.4151355314368
 30
0.0
 10
251.7714532561699
 20
-132.375059536287
 30
0.0
 10
246.9399802386055
 20
-137.2065325538539
 30
0.0
 10
240.9800562337547
 20
-137.2065325538539
 30
0.0
 10
235.0201322289039
 20
-137.2065325538539
 30
0.0
 10
230.1886592113395
 20
-132.375059536287
 30
0.0
 10
230.1886592113395
 20
-126.4151355314368
 30
0.0
 10
230.1886592113395
 20
-126.4151355314368
 30
0.0
 10
230.1886592113395
 20
-126.4151355314368
 30
0.0
 10
230.1886592113395
 20
-126.4151355314368
 30
0.0
  0
ENDBLK
  5
90
330
8D
100
AcDbEntity
  8
0
100
AcDbBlockEnd
  0
BLOCK
  5
94
330
92
100
AcDbEntity
  8
0
100
AcDbBlockBegin
  2
block 18
 70
     0
 10
0.0
 20
0.0
 30
0.0
  3
block 18
  1

  0
SPLINE
  5
96
330
92
100
AcDbEntity
  8
Ebene 1
 62
     7
420
 16777215
370
    35
100
AcDbSpline
210
0.0
220
0.0
230
1.0
 70
    11
 71
     3
 72
    20
 73
    16
 74
     0
 42
0.0000000001
 43
0.0000000001
 12
1.0
 22
0.0
 32
0.0
 13
1.0
 23
0.0
 33
0.0
 40
0.0
 40
0.0
 40
0.0
 40
0.0
 40
1.0
 40
1.0
 40
1.0
 40
2.0
 40
2.0
 40
2.0
 40
3.0
 40
3.0
 40
3.0
 40
4.0
 40
4.0
 40
4.0
 40
5.0
 40
5.0
 40
5.0
 40
5.0
 10
161.8431447360333
 20
-102.7395548233098
 30
0.0
 10
161.8431447360333
 20
-96.7796308184602
 30
0.0
 10
166.6746177535969
 20
-91.9481578008933
 30
0.0
 10
172.6345417584484
 20
-91.9481578008933
 30
0.0
 10
178.5944657632993
 20
-91.9481578008933
 30
0.0
 10
183.4259387808636
 20
-96.7796308184602
 30
0.0
 10
183.4259387808636
 20
-102.7395548233098
 30
0.0
 10
183.4259387808636
 20
-108.6994788281606
 30
0.0
 10
178.5944657632993
 20
-113.5309518457269
 30
0.0
 10
172.6345417584484
 20
-113.5309518457269
 30
0.0
 10
166.6746177535969
 20
-113.5309518457269
 30
0.0
 10
161.8431447360333
 20
-108.6994788281606
 30
0.0
 10
161.8431447360333
 20
-102.7395548233098
 30
0.0
 10
161.8431447360333
 20
-102.7395548233098
 30
0.0
 10
161.8431447360333
 20
-102.7395548233098
 30
0.0
 10
161.8431447360333
 20
-102.7395548233098
 30
0.0
  0
ENDBLK
  5
95
330
92
100
AcDbEntity
  8
0
100
AcDbBlockEnd
  0
BLOCK
  5
99
330
97
100
AcDbEntity
  8
0
100
AcDbBlockBegin
  2
block 19
 70
     0
 10
0.0
 20
0.0
 30
0.0
  3
block 19
  1

  0
SPLINE
  5
9B
330
97
100
AcDbEntity
  8
Ebene 1
 62
     7
420
 16777215
370
    35
100
AcDbSpline
210
0.0
220
0.0
230
1.0
 70
    11
 71
     3
 72
    20
 73
    16
 74
     0
 42
0.0000000001
 43
0.0000000001
 12
1.0
 22
0.0
 32
0.0
 13
1.0
 23
0.0
 33
0.0
 40
0.0
 40
0.0
 40
0.0
 40
0.0
 40
1.0
 40
1.0
 40
1.0
 40
2.0
 40
2.0
 40
2.0
 40
3.0
 40
3.0
 40
3.0
 40
4.0
 40
4.0
 40
4.0
 40
5.0
 40
5.0
 40
5.0
 40
5.0
 10
189.1813505261559
 20
-102.7395548233098
 30
0.0
 10
189.1813505261559
 20
-96.7796308184602
 30
0.0
 10
194.0128235437196
 20
-91.9481578008933
 30
0.0
 10
199.9727475485711
 20
-91.9481578008933
 30
0.0
 10
205.9326715534219
 20
-91.9481578008933
 30
0.0
 10
210.7641445709863
 20
-96.7796308184602
 30
0.0
 10
210.7641445709863
 20
-102.7395548233098
 30
0.0
 10
210.7641445709863
 20
-108.6994788281606
 30
0.0
 10
205.9326715534219
 20
-113.5309518457269
 30
0.0
 10
199.9727475485711
 20
-113.5309518457269
 30
0.0
 10
194.0128235437196
 20
-113.5309518457269
 30
0.0
 10
189.1813505261559
 20
-108.6994788281606
 30
0.0
 10
189.1813505261559
 20
-102.7395548233098
 30
0.0
 10
189.1813505261559
 20
-102.7395548233098
 30
0.0
 10
189.1813505261559
 20
-102.7395548233098
 30
0.0
 10
189.1813505261559
 20
-102.7395548233098
 30
0.0
  0
ENDBLK
  5
9A
330
97
100
AcDbEntity
  8
0
100
AcDbBlockEnd
  0
BLOCK
  5
9E
330
9C
100
AcDbEntity
  8
0
100
AcDbBlockBegin
  2
block 20
 70
     0
 10
0.0
 20
0.0
 30
0.0
  3
block 20
  1

  0
SPLINE
  5
A0
330
9C
100
AcDbEntity
  8
Ebene 1
 62
     7
420
 16777215
370
    35
100
AcDbSpline
210
0.0
220
0.0
230
1.0
 70
    11
 71
     3
 72
    20
 73
    16
 74
     0
 42
0.0000000001
 43
0.0000000001
 12
1.0
 22
0.0
 32
0.0
 13
1.0
 23
0.0
 33
0.0
 40
0.0
 40
0.0
 40
0.0
 40
0.0
 40
1.0
 40
1.0
 40
1.0
 40
2.0
 40
2.0
 40
2.0
 40
3.0
 40
3.0
 40
3.0
 40
4.0
 40
4.0
 40
4.0
 40
5.0
 40
5.0
 40
5.0
 40
5.0
 10
216.5195563162785
 20
-102.7395548233098
 30
0.0
 10
216.5195563162785
 20
-96.7796308184602
 30
0.0
 10
221.3510293338422
 20
-91.9481578008933
 30
0.0
 10
227.3109533386937
 20
-91.9481578008933
 30
0.0
 10
233.2708773435446
 20
-91.9481578008933
 30
0.0
 10
238.1023503611089
 20
-96.7796308184602
 30
0.0
 10
238.1023503611089
 20
-102.7395548233098
 30
0.0
 10
238.1023503611089
 20
-108.6994788281606
 30
0.0
 10
233.2708773435446
 20
-113.5309518457269
 30
0.0
 10
227.3109533386937
 20
-113.5309518457269
 30
0.0
 10
221.3510293338422
 20
-113.5309518457269
 30
0.0
 10
216.5195563162785
 20
-108.6994788281606
 30
0.0
 10
216.5195563162785
 20
-102.7395548233098
 30
0.0
 10
216.5195563162785
 20
-102.7395548233098
 30
0.0
 10
216.5195563162785
 20
-102.7395548233098
 30
0.0
 10
216.5195563162785
 20
-102.7395548233098
 30
0.0
  0
ENDBLK
  5
9F
330
9C
100
AcDbEntity
  8
0
100
AcDbBlockEnd
  0
ENDSEC
  0
SECTION
  2
ENTITIES
  0
SPLINE
  5
41
330
1F
100
AcDbEntity
  8
Ebene 1
 62
     7
420
 16777215
370
    35
100
AcDbSpline
210
0.0
220
0.0
230
1.0
 70
    11
 71
     3
 72
   125
 73
   121
 74
     0
 42
0.0000000001
 43
0.0000000001
 12
1.0
 22
0.0
 32
0.0
 13
1.0
 23
0.0
 33
0.0
 40
0.0
 40
0.0
 40
0.0
 40
0.0
 40
1.0
 40
1.0
 40
1.0
 40
2.0
 40
2.0
 40
2.0
 40
3.0
 40
3.0
 40
3.0
 40
4.0
 40
4.0
 40
4.0
 40
5.0
 40
5.0
 40
5.0
 40
6.0
 40
6.0
 40
6.0
 40
7.0
 40
7.0
 40
7.0
 40
8.0
 40
8.0
 40
8.0
 40
9.0
 40
9.0
 40
9.0
 40
10.0
 40
10.0
 40
10.0
 40
11.0
 40
11.0
 40
11.0
 40
12.0
 40
12.0
 40
12.0
 40
13.0
 40
13.0
 40
13.0
 40
14.0
 40
14.0
 40
14.0
 40
15.0
 40
15.0
 40
15.0
 40
16.0
 40
16.0
 40
16.0
 40
17.0
 40
17.0
 40
17.0
 40
18.0
 40
18.0
 40
18.0
 40
19.0
 40
19.0
 40
19.0
 40
20.0
 40
20.0
 40
20.0
 40
21.0
 40
21.0
 40
21.0
 40
22.0
 40
22.0
 40
22.0
 40
23.0
 40
23.0
 40
23.0
 40
24.0
 40
24.0
 40
24.0
 40
25.0
 40
25.0
 40
25.0
 40
26.0
 40
26.0
 40
26.0
 40
27.0
 40
27.0
 40
27.0
 40
28.0
 40
28.0
 40
28.0
 40
29.0
 40
29.0
 40
29.0
 40
30.0
 40
30.0
 40
30.0
 40
31.0
 40
31.0
 40
31.0
 40
32.0
 40
32.0
 40
32.0
 40
33.0
 40
33.0
 40
33.0
 40
34.0
 40
34.0
 40
34.0
 40
35.0
 40
35.0
 40
35.0
 40
36.0
 40
36.0
 40
36.0
 40
37.0
 40
37.0
 40
37.0
 40
38.0
 40
38.0
 40
38.0
 40
39.0
 40
39.0
 40
39.0
 40
40.0
 40
40.0
 40
40.0
 40
40.0
 10
261.0698850813305
 20
-133.5029677076096
 30
0.0
 10
259.2536086336094
 20
-132.7978717500766
 30
0.0
 10
258.1929716321827
 20
-131.2440658725624
 30
0.0
 10
258.4966993123194
 20
-129.5376172951165
 30
0.0
 10
258.6771762375338
 20
-128.5236346638487
 30
0.0
 10
258.7714487064655
 20
-127.4802190518231
 30
0.0
 10
258.7714487064655
 20
-126.4151388911933
 30
0.0
 10
258.7714487064655
 20
-118.8682417333977
 30
0.0
 10
254.0468752950369
 20
-112.4074572474565
 30
0.0
 10
247.4007663308809
 20
-109.8273671359958
 30
0.0
 10
245.5844905094805
 20
-109.1222695651085
 30
0.0
 10
244.5238672906962
 20
-107.5684704184391
 30
0.0
 10
244.8275939554937
 20
-105.8620275488657
 30
0.0
 10
245.008070880708
 20
-104.8480449195827
 30
0.0
 10
245.1023433496398
 20
-103.804629452735
 30
0.0
 10
245.1023433496398
 20
-102.739559910838
 30
0.0
 10
245.1023433496398
 20
-92.92934907073449
 30
0.0
 10
237.1211767663505
 20
-84.94818248744332
 30
0.0
 10
227.3109659262454
 20
-84.94818248744332
 30
0.0
 10
223.0881547280731
 20
-84.94818248744332
 30
0.0
 10
219.2050417107424
 20
-86.42768597150858
 30
0.0
 10
216.1510743956318
 20
-88.8949504893977
 30
0.0
 10
214.63552735382
 20
-90.11934324008362
 30
0.0
 10
212.6481937850192
 20
-90.11934324008362
 30
0.0
 10
211.1326467432081
 20
-88.8949504893977
 30
0.0
 10
208.0786794280968
 20
-86.42768597150858
 30
0.0
 10
204.1955664107661
 20
-84.94818248744332
 30
0.0
 10
199.9727552125938
 20
-84.94818248744332
 30
0.0
 10
195.7499440144215
 20
-84.94818248744332
 30
0.0
 10
191.8668309970909
 20
-86.42768597150858
 30
0.0
 10
188.8128636819802
 20
-88.8949504893977
 30
0.0
 10
187.2973166401684
 20
-90.11934324008362
 30
0.0
 10
185.3099830713676
 20
-90.11934324008362
 30
0.0
 10
183.7944360295565
 20
-88.8949504893977
 30
0.0
 10
180.7404687144452
 20
-86.42768597150858
 30
0.0
 10
176.8573556971149
 20
-84.94818248744332
 30
0.0
 10
172.6345444989423
 20
-84.94818248744332
 30
0.0
 10
162.8243336588378
 20
-84.94818248744332
 30
0.0
 10
154.8431240118524
 20
-92.92934907073449
 30
0.0
 10
154.8431240118524
 20
-102.739559910838
 30
0.0
 10
154.8431240118524
 20
-103.804629452735
 30
0.0
 10
154.9374069543392
 20
-104.8480449195827
 30
0.0
 10
155.1178944963024
 20
-105.8620275488657
 30
0.0
 10
155.4216388477609
 20
-107.5684694050272
 30
0.0
 10
154.361030665152
 20
-109.122268688495
 30
0.0
 10
152.5447551840622
 20
-109.8273671359958
 30
0.0
 10
145.898655727941
 20
-112.4074572474565
 30
0.0
 10
141.1740186550266
 20
-118.8682417333977
 30
0.0
 10
141.1740186550266
 20
-126.4151388911933
 30
0.0
 10
141.1740186550266
 20
-127.4802190518231
 30
0.0
 10
141.2683015975134
 20
-128.5236399006262
 30
0.0
 10
141.4487891394766
 20
-129.5376278402682
 30
0.0
 10
141.7525339872669
 20
-131.2440814217044
 30
0.0
 10
140.691914558882
 20
-132.7978916091571
 30
0.0
 10
138.8756387374816
 20
-133.5029891800444
 30
0.0
 10
132.2295297733256
 20
-136.083079291505
 30
0.0
 10
127.5049563618969
 20
-142.543863777445
 30
0.0
 10
127.5049563618969
 20
-150.0907609352415
 30
0.0
 10
127.5049563618969
 20
-157.6376580930375
 30
0.0
 10
132.2295297733256
 20
-164.0984584943495
 30
0.0
 10
138.8756113712815
 20
-166.6785530703514
 30
0.0
 10
140.6918858015688
 20
-167.3836542246254
 30
0.0
 10
141.7524952330107
 20
-168.9374459705519
 30
0.0
 10
141.448768049174
 20
-170.6438828227215
 30
0.0
 10
141.268291123959
 20
-171.6578601436301
 30
0.0
 10
141.1740186550266
 20
-172.7012703737002
 30
0.0
 10
141.1740186550266
 20
-173.7663399155969
 30
0.0
 10
141.1740186550266
 20
-181.3132370733925
 30
0.0
 10
145.898655727941
 20
-187.7740374747045
 30
0.0
 10
152.5447551840622
 20
-190.3541320507064
 30
0.0
 10
154.3610302535332
 20
-191.0592315585019
 30
0.0
 10
155.4216383287015
 20
-192.6130359028902
 30
0.0
 10
155.1178944963024
 20
-194.3194837764667
 30
0.0
 10
154.9374069543392
 20
-195.3334717141236
 30
0.0
 10
154.8431240118524
 20
-196.3768924177487
 30
0.0
 10
154.8431240118524
 20
-197.4419619596454
 30
0.0
 10
154.8431240118524
 20
-207.2521727997493
 30
0.0
 10
162.8243336588378
 20
-215.2333609148872
 30
0.0
 10
172.6345444989423
 20
-215.2333609148872
 30
0.0
 10
176.8573556971149
 20
-215.2333609148872
 30
0.0
 10
180.7404687144452
 20
-213.7538574308213
 30
0.0
 10
183.7944360295565
 20
-211.2865929129322
 30
0.0
 10
185.3099830713683
 20
-210.0622001622469
 30
0.0
 10
187.2973166401684
 20
-210.0622001622469
 30
0.0
 10
188.8128636819802
 20
-211.2865929129322
 30
0.0
 10
191.8668309970909
 20
-213.7538574308213
 30
0.0
 10
195.7499440144215
 20
-215.2333609148872
 30
0.0
 10
199.9727552125938
 20
-215.2333609148872
 30
0.0
 10
204.1955664107661
 20
-215.2333609148872
 30
0.0
 10
208.0786794280968
 20
-213.7538574308213
 30
0.0
 10
211.1326467432081
 20
-211.2865929129322
 30
0.0
 10
212.6481937850192
 20
-210.0622001622463
 30
0.0
 10
214.63552735382
 20
-210.0622001622469
 30
0.0
 10
216.1510743956311
 20
-211.2865929129322
 30
0.0
 10
219.2050417107424
 20
-213.7538574308213
 30
0.0
 10
223.0881547280731
 20
-215.2333609148872
 30
0.0
 10
227.3109659262454
 20
-215.2333609148872
 30
0.0
 10
237.1211767663505
 20
-215.2333609148872
 30
0.0
 10
245.1023433496398
 20
-207.2521727997493
 30
0.0
 10
245.1023433496398
 20
-197.4419619596454
 30
0.0
 10
245.1023433496398
 20
-196.3768924177487
 30
0.0
 10
245.008070880708
 20
-195.3334717141236
 30
0.0
 10
244.8275939554937
 20
-194.3194837764667
 30
0.0
 10
244.5238678097287
 20
-192.6130348894902
 30
0.0
 10
245.5844909210977
 20
-191.0592306818878
 30
0.0
 10
247.4007663308809
 20
-190.354132050707
 30
0.0
 10
254.0468752950369
 20
-187.7740374747045
 30
0.0
 10
258.7714487064655
 20
-181.3132370733925
 30
0.0
 10
258.7714487064655
 20
-173.7663399155969
 30
0.0
 10
258.7714487064655
 20
-172.7012703737002
 30
0.0
 10
258.6771762375338
 20
-171.6578601436301
 30
0.0
 10
258.4966993123194
 20
-170.6438828227215
 30
0.0
 10
258.1929721284843
 20
-168.9374459705519
 30
0.0
 10
259.253583544203
 20
-167.3836534013852
 30
0.0
 10
261.0698582940828
 20
-166.6785530703514
 30
0.0
 10
267.7159488211211
 20
-164.0984584943495
 30
0.0
 10
272.4405540632914
 20
-157.6376580930375
 30
0.0
 10
272.4405540632914
 20
-150.0907609352415
 30
0.0
 10
272.4405540632914
 20
-142.5438452656289
 30
0.0
 10
267.7160124826043
 20
-136.0830581832441
 30
0.0
 10
261.0698850813305
 20
-133.5029677076096
 30
0.0
  0
INSERT
  5
43
330
1F
100
AcDbEntity
  8
Ebene 1
100
AcDbBlockReference
  2
block 2
 10
0.0
 20
0.0
 30
0.0
  0
INSERT
  5
48
330
1F
100
AcDbEntity
  8
Ebene 1
100
AcDbBlockReference
  2
block 3
 10
0.0
 20
0.0
 30
0.0
  0
INSERT
  5
4D
330
1F
100
AcDbEntity
  8
Ebene 1
100
AcDbBlockReference
  2
block 4
 10
0.0
 20
0.0
 30
0.0
  0
INSERT
  5
52
330
1F
100
AcDbEntity
  8
Ebene 1
100
AcDbBlockReference
  2
block 5
 10
0.0
 20
0.0
 30
0.0
  0
INSERT
  5
57
330
1F
100
AcDbEntity
  8
Ebene 1
100
AcDbBlockReference
  2
block 6
 10
0.0
 20
0.0
 30
0.0
  0
INSERT
  5
5C
330
1F
100
AcDbEntity
  8
Ebene 1
100
AcDbBlockReference
  2
block 7
 10
0.0
 20
0.0
 30
0.0
  0
INSERT
  5
61
330
1F
100
AcDbEntity
  8
Ebene 1
100
AcDbBlockReference
  2
block 8
 10
0.0
 20
0.0
 30
0.0
  0
INSERT
  5
66
330
1F
100
AcDbEntity
  8
Ebene 1
100
AcDbBlockReference
  2
block 9
 10
0.0
 20
0.0
 30
0.0
  0
INSERT
  5
6B
330
1F
100
AcDbEntity
  8
Ebene 1
100
AcDbBlockReference
  2
block 10
 10
0.0
 20
0.0
 30
0.0
  0
INSERT
  5
70
330
1F
100
AcDbEntity
  8
Ebene 1
100
AcDbBlockReference
  2
block 11
 10
0.0
 20
0.0
 30
0.0
  0
INSERT
  5
75
330
1F
100
AcDbEntity
  8
Ebene 1
100
AcDbBlockReference
  2
block 12
 10
0.0
 20
0.0
 30
0.0
  0
INSERT
  5
7A
330
1F
100
AcDbEntity
  8
Ebene 1
100
AcDbBlockReference
  2
block 13
 10
0.0
 20
0.0
 30
0.0
  0
INSERT
  5
7F
330
1F
100
AcDbEntity
  8
Ebene 1
100
AcDbBlockReference
  2
block 14
 10
0.0
 20
0.0
 30
0.0
  0
INSERT
  5
84
330
1F
100
AcDbEntity
  8
Ebene 1
100
AcDbBlockReference
  2
block 15
 10
0.0
 20
0.0
 30
0.0
  0
INSERT
  5
89
330
1F
100
AcDbEntity
  8
Ebene 1
100
AcDbBlockReference
  2
block 16
 10
0.0
 20
0.0
 30
0.0
  0
INSERT
  5
8E
330
1F
100
AcDbEntity
  8
Ebene 1
100
AcDbBlockReference
  2
block 17
 10
0.0
 20
0.0
 30
0.0
  0
INSERT
  5
93
330
1F
100
AcDbEntity
  8
Ebene 1
100
AcDbBlockReference
  2
block 18
 10
0.0
 20
0.0
 30
0.0
  0
INSERT
  5
98
330
1F
100
AcDbEntity
  8
Ebene 1
100
AcDbBlockReference
  2
block 19
 10
0.0
 20
0.0
 30
0.0
  0
INSERT
  5
9D
330
1F
100
AcDbEntity
  8
Ebene 1
100
AcDbBlockReference
  2
block 20
 10
0.0
 20
0.0
 30
0.0
  0
ENDSEC
  0
SECTION
  2
OBJECTS
  0
DICTIONARY
  5
C
330
0
100
AcDbDictionary
281
     1
  3
ACAD_GROUP
350
D
  3
ACAD_LAYOUT
350
1A
  3
ACAD_MATERIAL
350
3B
  3
ACAD_MLEADERSTYLE
350
A2
  3
ACAD_MLINESTYLE
350
17
  3
ACAD_PLOTSETTINGS
350
19
  3
ACAD_PLOTSTYLENAME
350
E
  3
ACAD_TABLESTYLE
350
A1
  3
ACAD_VISUALSTYLE
350
2A
  0
SUN
  5
3F
330
29
100
AcDbSun
 90
        1
290
     0
 63
     7
421
 16777215
 40
1.0
291
     1
 91
  2455826
 92
 54000000
292
     0
 70
     2
 71
   256
280
     1
  0
DICTIONARY
  5
D
102
{ACAD_REACTORS
330
C
102
}
330
C
100
AcDbDictionary
281
     1
  0
DICTIONARY
  5
1A
102
{ACAD_REACTORS
330
C
102
}
330
C
100
AcDbDictionary
281
     1
  3
Layout1
350
1E
  3
Layout2
350
26
  3
Model
350
22
  0
DICTIONARY
  5
3B
102
{ACAD_REACTORS
330
C
102
}
330
C
100
AcDbDictionary
281
     1
  3
ByBlock
350
3D
  3
ByLayer
350
3C
  3
Global
350
3E
  0
DICTIONARY
  5
A2
102
{ACAD_REACTORS
330
C
102
}
330
C
100
AcDbDictionary
281
     1
  0
DICTIONARY
  5
17
102
{ACAD_REACTORS
330
C
102
}
330
C
100
AcDbDictionary
281
     1
  3
Standard
350
18
  0
DICTIONARY
  5
19
102
{ACAD_REACTORS
330
C
102
}
330
C
100
AcDbDictionary
281
     1
  0
ACDBDICTIONARYWDFLT
  5
E
102
{ACAD_REACTORS
330
C
102
}
330
C
100
AcDbDictionary
281
     1
  3
Normal
350
F
100
AcDbDictionaryWithDefault
340
F
  0
DICTIONARY
  5
A1
102
{ACAD_REACTORS
330
C
102
}
330
C
100
AcDbDictionary
281
     1
  0
DICTIONARY
  5
2A
102
{ACAD_REACTORS
330
C
102
}
330
C
100
AcDbDictionary
281
     1
  3
2dWireframe
350
2F
  3
3D Hidden
350
31
  3
3dWireframe
350
30
  3
Basic
350
32
  3
Brighten
350
36
  3
ColorChange
350
3A
  3
Conceptual
350
34
  3
Dim
350
35
  3
Facepattern
350
39
  3
Flat
350
2B
  3
FlatWithEdges
350
2C
  3
Gouraud
350
2D
  3
GouraudWithEdges
350
2E
  3
Linepattern
350
38
  3
Realistic
350
33
  3
Thicken
350
37
  0
LAYOUT
  5
1E
102
{ACAD_REACTORS
330
1A
102
}
330
1A
100
AcDbPlotSettings
  1

  2
none_device
  4

  6

 40
0.0
 41
0.0
 42
0.0
 43
0.0
 44
0.0
 45
0.0
 46
0.0
 47
0.0
 48
0.0
 49
0.0
140
0.0
141
0.0
142
1.0
143
1.0
 70
   688
 72
     0
 73
     0
 74
     5
  7

 75
    16
 76
     0
 77
     2
 78
   300
147
1.0
148
0.0
149
0.0
100
AcDbLayout
  1
Layout1
 70
     1
 71
     1
 10
0.0
 20
0.0
 11
12.0
 21
9.0
 12
0.0
 22
0.0
 32
0.0
 14
1.000000000000000E+20
 24
1.000000000000000E+20
 34
1.000000000000000E+20
 15
-1.000000000000000E+20
 25
-1.000000000000000E+20
 35
-1.000000000000000E+20
146
0.0
 13
0.0
 23
0.0
 33
0.0
 16
1.0
 26
0.0
 36
0.0
 17
0.0
 27
1.0
 37
0.0
 76
     0
330
1B
  0
LAYOUT
  5
26
102
{ACAD_REACTORS
330
1A
102
}
330
1A
100
AcDbPlotSettings
  1

  2
none_device
  4

  6

 40
0.0
 41
0.0
 42
0.0
 43
0.0
 44
0.0
 45
0.0
 46
0.0
 47
0.0
 48
0.0
 49
0.0
140
0.0
141
0.0
142
1.0
143
1.0
 70
   688
 72
     0
 73
     0
 74
     5
  7

 75
    16
 76
     0
 77
     2
 78
   300
147
1.0
148
0.0
149
0.0
100
AcDbLayout
  1
Layout2
 70
     1
 71
     2
 10
0.0
 20
0.0
 11
0.0
 21
0.0
 12
0.0
 22
0.0
 32
0.0
 14
0.0
 24
0.0
 34
0.0
 15
0.0
 25
0.0
 35
0.0
146
0.0
 13
0.0
 23
0.0
 33
0.0
 16
1.0
 26
0.0
 36
0.0
 17
0.0
 27
1.0
 37
0.0
 76
     0
330
23
  0
LAYOUT
  5
22
102
{ACAD_REACTORS
330
1A
102
}
330
1A
100
AcDbPlotSettings
  1

  2
none_device
  4

  6

 40
0.0
 41
0.0
 42
0.0
 43
0.0
 44
0.0
 45
0.0
 46
0.0
 47
0.0
 48
0.0
 49
0.0
140
0.0
141
0.0
142
1.0
143
1.0
 70
  1712
 72
     0
 73
     0
 74
     0
  7

 75
     0
 76
     0
 77
     2
 78
   300
147
1.0
148
0.0
149
0.0
100
AcDbLayout
  1
Model
 70
     1
 71
     0
 10
0.0
 20
0.0
 11
12.0
 21
9.0
 12
0.0
 22
0.0
 32
0.0
 14
1.000000000000000E+20
 24
1.000000000000000E+20
 34
1.000000000000000E+20
 15
-1.000000000000000E+20
 25
-1.000000000000000E+20
 35
-1.000000000000000E+20
146
0.0
 13
0.0
 23
0.0
 33
0.0
 16
1.0
 26
0.0
 36
0.0
 17
0.0
 27
1.0
 37
0.0
 76
     0
330
1F
331
29
  0
MATERIAL
  5
3D
102
{ACAD_REACTORS
330
3B
102
}
330
3B
100
AcDbMaterial
  1
ByBlock
 72
     1
 94
      127
  0
MATERIAL
  5
3C
102
{ACAD_REACTORS
330
3B
102
}
330
3B
100
AcDbMaterial
  1
ByLayer
 72
     1
 94
      127
  0
MATERIAL
  5
3E
102
{ACAD_REACTORS
330
3B
102
}
330
3B
100
AcDbMaterial
  1
Global
 72
     1
 94
      127
  0
MLINESTYLE
  5
18
102
{ACAD_REACTORS
330
17
102
}
330
17
100
AcDbMlineStyle
  2
Standard
 70
     0
  3

 62
   256
 51
90.0
 52
90.0
 71
     2
 49
0.5
 62
   256
  6
BYLAYER
 49
-0.5
 62
   256
  6
BYLAYER
  0
ACDBPLACEHOLDER
  5
F
102
{ACAD_REACTORS
330
E
102
}
330
E
  0
VISUALSTYLE
  5
2F
102
{ACAD_REACTORS
330
2A
102
}
330
2A
100
AcDbVisualStyle
  2
2dWireframe
 70
     4
177
     2
291
     0
 71
     0
176
     1
 72
     2
176
     1
 73
     0
176
     1
 90
        0
176
     1
 40
-0.6
176
     1
 41
-30.0
176
     1
 62
     5
 63
     7
421
 16777215
176
     1
 74
     1
176
     1
 91
        4
176
     1
 64
     7
176
     1
 65
   257
176
     1
 75
     1
176
     1
175
     1
176
     1
 42
1.0
176
     1
 92
        0
176
     1
 66
   257
176
     1
 43
1.0
176
     1
 76
     1
176
     1
 77
     6
176
     1
 78
     2
176
     1
 67
     7
176
     1
 79
     5
176
     1
170
     0
176
     1
171
     0
176
     1
290
     0
176
     1
 93
        1
176
     1
 44
0.0
176
     1
173
     0
176
     1
  0
VISUALSTYLE
  5
31
102
{ACAD_REACTORS
330
2A
102
}
330
2A
100
AcDbVisualStyle
  2
3D Hidden
 70
     6
177
     2
291
     0
 71
     1
176
     1
 72
     2
176
     1
 73
     2
176
     1
 90
        0
176
     1
 40
-0.6
176
     1
 41
-30.0
176
     1
 62
     5
 63
     7
421
 16777215
176
     1
 74
     2
176
     1
 91
        2
176
     1
 64
     7
176
     1
 65
   257
176
     1
 75
     2
176
     1
175
     1
176
     1
 42
40.0
176
     1
 92
        0
176
     1
 66
   257
176
     1
 43
1.0
176
     1
 76
     1
176
     1
 77
     6
176
     1
 78
     2
176
     1
 67
     7
176
     1
 79
     3
176
     1
170
     0
176
     1
171
     0
176
     1
290
     0
176
     1
 93
        1
176
     1
 44
0.0
176
     1
173
     0
176
     1
  0
VISUALSTYLE
  5
30
102
{ACAD_REACTORS
330
2A
102
}
330
2A
100
AcDbVisualStyle
  2
3dWireframe
 70
     5
177
     2
291
     0
 71
     0
176
     1
 72
     2
176
     1
 73
     0
176
     1
 90
        0
176
     1
 40
-0.6
176
     1
 41
-30.0
176
     1
 62
     5
 63
     7
421
 16777215
176
     1
 74
     1
176
     1
 91
        4
176
     1
 64
     7
176
     1
 65
   257
176
     1
 75
     1
176
     1
175
     1
176
     1
 42
1.0
176
     1
 92
        0
176
     1
 66
   257
176
     1
 43
1.0
176
     1
 76
     1
176
     1
 77
     6
176
     1
 78
     2
176
     1
 67
     7
176
     1
 79
     5
176
     1
170
     0
176
     1
171
     0
176
     1
290
     0
176
     1
 93
        1
176
     1
 44
0.0
176
     1
173
     0
176
     1
  0
VISUALSTYLE
  5
32
102
{ACAD_REACTORS
330
2A
102
}
330
2A
100
AcDbVisualStyle
  2
Basic
 70
     7
177
     2
291
     1
 71
     1
176
     1
 72
     0
176
     1
 73
     1
176
     1
 90
        0
176
     1
 40
-0.6
176
     1
 41
-30.0
176
     1
 62
     5
 63
     7
421
 16777215
176
     1
 74
     0
176
     1
 91
        4
176
     1
 64
     7
176
     1
 65
   257
176
     1
 75
     1
176
     1
175
     1
176
     1
 42
1.0
176
     1
 92
        8
176
     1
 66
     7
176
     1
 43
1.0
176
     1
 76
     1
176
     1
 77
     6
176
     1
 78
     2
176
     1
 67
     7
176
     1
 79
     5
176
     1
170
     0
176
     1
171
     0
176
     1
290
     0
176
     1
 93
        1
176
     1
 44
0.0
176
     1
173
     0
176
     1
  0
VISUALSTYLE
  5
36
102
{ACAD_REACTORS
330
2A
102
}
330
2A
100
AcDbVisualStyle
  2
Brighten
 70
    12
177
     2
291
     1
 71
     2
176
     1
 72
     2
176
     1
 73
     0
176
     1
 90
        0
176
     1
 40
-0.6
176
     1
 41
-30.0
176
     1
 62
     5
 63
     7
421
 16777215
176
     1
 74
     1
176
     1
 91
        4
176
     1
 64
     7
176
     1
 65
   257
176
     1
 75
     1
176
     1
175
     1
176
     1
 42
1.0
176
     1
 92
        8
176
     1
 66
     7
176
     1
 43
1.0
176
     1
 76
     1
176
     1
 77
     6
176
     1
 78
     2
176
     1
 67
     7
176
     1
 79
     5
176
     1
170
     0
176
     1
171
     0
176
     1
290
     0
176
     1
 93
        1
176
     1
 44
50.0
176
     1
173
     0
176
     1
  0
VISUALSTYLE
  5
3A
102
{ACAD_REACTORS
330
2A
102
}
330
2A
100
AcDbVisualStyle
  2
ColorChange
 70
    16
177
     2
291
     1
 71
     2
176
     1
 72
     2
176
     1
 73
     3
176
     1
 90
        0
176
     1
 40
-0.6
176
     1
 41
-30.0
176
     1
 62
     5
 63
     8
421
  8421504
176
     1
 74
     1
176
     1
 91
        4
176
     1
 64
     7
176
     1
 65
   257
176
     1
 75
     1
176
     1
175
     1
176
     1
 42
1.0
176
     1
 92
        8
176
     1
 66
     8
424
  8421504
176
     1
 43
1.0
176
     1
 76
     1
176
     1
 77
     6
176
     1
 78
     2
176
     1
 67
     7
176
     1
 79
     5
176
     1
170
     0
176
     1
171
     0
176
     1
290
     0
176
     1
 93
        1
176
     1
 44
0.0
176
     1
173
     0
176
     1
  0
VISUALSTYLE
  5
34
102
{ACAD_REACTORS
330
2A
102
}
330
2A
100
AcDbVisualStyle
  2
Conceptual
 70
     9
177
     2
291
     0
 71
     3
176
     1
 72
     2
176
     1
 73
     0
176
     1
 90
        0
176
     1
 40
-0.6
176
     1
 41
-30.0
176
     1
 62
     5
 63
     7
421
 16777215
176
     1
 74
     2
176
     1
 91
        2
176
     1
 64
     7
176
     1
 65
   257
176
     1
 75
     1
176
     1
175
     1
176
     1
 42
40.0
176
     1
 92
        8
176
     1
 66
     7
176
     1
 43
1.0
176
     1
 76
     1
176
     1
 77
     6
176
     1
 78
     2
176
     1
 67
     7
176
     1
 79
     3
176
     1
170
     0
176
     1
171
     0
176
     1
290
     0
176
     1
 93
        1
176
     1
 44
0.0
176
     1
173
     0
176
     1
  0
VISUALSTYLE
  5
35
102
{ACAD_REACTORS
330
2A
102
}
330
2A
100
AcDbVisualStyle
  2
Dim
 70
    11
177
     2
291
     1
 71
     2
176
     1
 72
     2
176
     1
 73
     0
176
     1
 90
        0
176
     1
 40
-0.6
176
     1
 41
-30.0
176
     1
 62
     5
 63
     7
421
 16777215
176
     1
 74
     1
176
     1
 91
        4
176
     1
 64
     7
176
     1
 65
   257
176
     1
 75
     1
176
     1
175
     1
176
     1
 42
1.0
176
     1
 92
        8
176
     1
 66
     7
176
     1
 43
1.0
176
     1
 76
     1
176
     1
 77
     6
176
     1
 78
     2
176
     1
 67
     7
176
     1
 79
     5
176
     1
170
     0
176
     1
171
     0
176
     1
290
     0
176
     1
 93
        1
176
     1
 44
-50.0
176
     1
173
     0
176
     1
  0
VISUALSTYLE
  5
39
102
{ACAD_REACTORS
330
2A
102
}
330
2A
100
AcDbVisualStyle
  2
Facepattern
 70
    15
177
     2
291
     1
 71
     2
176
     1
 72
     2
176
     1
 73
     0
176
     1
 90
        0
176
     1
 40
-0.6
176
     1
 41
-30.0
176
     1
 62
     5
 63
     7
421
 16777215
176
     1
 74
     1
176
     1
 91
        4
176
     1
 64
     7
176
     1
 65
   257
176
     1
 75
     1
176
     1
175
     1
176
     1
 42
1.0
176
     1
 92
        8
176
     1
 66
     7
176
     1
 43
1.0
176
     1
 76
     1
176
     1
 77
     6
176
     1
 78
     2
176
     1
 67
     7
176
     1
 79
     5
176
     1
170
     0
176
     1
171
     0
176
     1
290
     0
176
     1
 93
        1
176
     1
 44
0.0
176
     1
173
     0
176
     1
  0
VISUALSTYLE
  5
2B
102
{ACAD_REACTORS
330
2A
102
}
330
2A
100
AcDbVisualStyle
  2
Flat
 70
     0
177
     2
291
     1
 71
     2
176
     1
 72
     1
176
     1
 73
     1
176
     1
 90
        2
176
     1
 40
-0.6
176
     1
 41
30.0
176
     1
 62
     5
 63
     7
421
 16777215
176
     1
 74
     0
176
     1
 91
        4
176
     1
 64
     7
176
     1
 65
   257
176
     1
 75
     1
176
     1
175
     1
176
     1
 42
1.0
176
     1
 92
        8
176
     1
 66
     7
176
     1
 43
1.0
176
     1
 76
     1
176
     1
 77
     6
176
     1
 78
     2
176
     1
 67
     7
176
     1
 79
     5
176
     1
170
     0
176
     1
171
     0
176
     1
290
     0
176
     1
 93
       13
176
     1
 44
0.0
176
     1
173
     0
176
     1
  0
VISUALSTYLE
  5
2C
102
{ACAD_REACTORS
330
2A
102
}
330
2A
100
AcDbVisualStyle
  2
FlatWithEdges
 70
     1
177
     2
291
     1
 71
     2
176
     1
 72
     1
176
     1
 73
     1
176
     1
 90
        2
176
     1
 40
-0.6
176
     1
 41
30.0
176
     1
 62
     5
 63
     7
421
 16777215
176
     1
 74
     1
176
     1
 91
        4
176
     1
 64
     7
176
     1
 65
   257
176
     1
 75
     1
176
     1
175
     1
176
     1
 42
1.0
176
     1
 92
        0
176
     1
 66
   257
176
     1
 43
1.0
176
     1
 76
     1
176
     1
 77
     6
176
     1
 78
     2
176
     1
 67
     7
176
     1
 79
     5
176
     1
170
     0
176
     1
171
     0
176
     1
290
     0
176
     1
 93
       13
176
     1
 44
0.0
176
     1
173
     0
176
     1
  0
VISUALSTYLE
  5
2D
102
{ACAD_REACTORS
330
2A
102
}
330
2A
100
AcDbVisualStyle
  2
Gouraud
 70
     2
177
     2
291
     1
 71
     2
176
     1
 72
     2
176
     1
 73
     1
176
     1
 90
        2
176
     1
 40
-0.6
176
     1
 41
30.0
176
     1
 62
     5
 63
     7
421
 16777215
176
     1
 74
     0
176
     1
 91
        4
176
     1
 64
     7
176
     1
 65
   257
176
     1
 75
     1
176
     1
175
     1
176
     1
 42
1.0
176
     1
 92
        0
176
     1
 66
     7
176
     1
 43
1.0
176
     1
 76
     1
176
     1
 77
     6
176
     1
 78
     2
176
     1
 67
     7
176
     1
 79
     5
176
     1
170
     0
176
     1
171
     0
176
     1
290
     0
176
     1
 93
       13
176
     1
 44
0.0
176
     1
173
     0
176
     1
  0
VISUALSTYLE
  5
2E
102
{ACAD_REACTORS
330
2A
102
}
330
2A
100
AcDbVisualStyle
  2
GouraudWithEdges
 70
     3
177
     2
291
     1
 71
     2
176
     1
 72
     2
176
     1
 73
     1
176
     1
 90
        2
176
     1
 40
-0.6
176
     1
 41
30.0
176
     1
 62
     5
 63
     7
421
 16777215
176
     1
 74
     1
176
     1
 91
        4
176
     1
 64
     7
176
     1
 65
   257
176
     1
 75
     1
176
     1
175
     1
176
     1
 42
1.0
176
     1
 92
        0
176
     1
 66
   257
176
     1
 43
1.0
176
     1
 76
     1
176
     1
 77
     6
176
     1
 78
     2
176
     1
 67
     7
176
     1
 79
     5
176
     1
170
     0
176
     1
171
     0
176
     1
290
     0
176
     1
 93
       13
176
     1
 44
0.0
176
     1
173
     0
176
     1
  0
VISUALSTYLE
  5
38
102
{ACAD_REACTORS
330
2A
102
}
330
2A
100
AcDbVisualStyle
  2
Linepattern
 70
    14
177
     2
291
     1
 71
     2
176
     1
 72
     2
176
     1
 73
     0
176
     1
 90
        0
176
     1
 40
-0.6
176
     1
 41
-30.0
176
     1
 62
     5
 63
     7
421
 16777215
176
     1
 74
     1
176
     1
 91
        4
176
     1
 64
     7
176
     1
 65
   257
176
     1
 75
     7
176
     1
175
     7
176
     1
 42
1.0
176
     1
 92
        8
176
     1
 66
     7
176
     1
 43
1.0
176
     1
 76
     1
176
     1
 77
     6
176
     1
 78
     2
176
     1
 67
     7
176
     1
 79
     5
176
     1
170
     0
176
     1
171
     0
176
     1
290
     0
176
     1
 93
        1
176
     1
 44
0.0
176
     1
173
     0
176
     1
  0
VISUALSTYLE
  5
33
102
{ACAD_REACTORS
330
2A
102
}
330
2A
100
AcDbVisualStyle
  2
Realistic
 70
     8
177
     2
291
     0
 71
     2
176
     1
 72
     2
176
     1
 73
     0
176
     1
 90
        0
176
     1
 40
-0.6
176
     1
 41
-30.0
176
     1
 62
     5
 63
     7
421
 16777215
176
     1
 74
     1
176
     1
 91
        0
176
     1
 64
     7
176
     1
 65
   257
176
     1
 75
     1
176
     1
175
     1
176
     1
 42
1.0
176
     1
 92
        8
176
     1
 66
     8
424
  7895160
176
     1
 43
1.0
176
     1
 76
     1
176
     1
 77
     6
176
     1
 78
     2
176
     1
 67
     7
176
     1
 79
     5
176
     1
170
     0
176
     1
171
     0
176
     1
290
     0
176
     1
 93
       13
176
     1
 44
0.0
176
     1
173
     0
176
     1
  0
VISUALSTYLE
  5
37
102
{ACAD_REACTORS
330
2A
102
}
330
2A
100
AcDbVisualStyle
  2
Thicken
 70
    13
177
     2
291
     1
 71
     2
176
     1
 72
     2
176
     1
 73
     0
176
     1
 90
        0
176
     1
 40
-0.6
176
     1
 41
-30.0
176
     1
 62
     5
 63
     7
421
 16777215
176
     1
 74
     1
176
     1
 91
        4
176
     1
 64
     7
176
     1
 65
   257
176
     1
 75
     1
176
     1
175
     1
176
     1
 42
1.0
176
     1
 92
       12
176
     1
 66
     7
176
     1
 43
1.0
176
     1
 76
     1
176
     1
 77
     6
176
     1
 78
     2
176
     1
 67
     7
176
     1
 79
     5
176
     1
170
     0
176
     1
171
     0
176
     1
290
     0
176
     1
 93
        1
176
     1
 44
0.0
176
     1
173
     0
176
     1
  0
ENDSEC
  0
EOF
