**ABCDEFGHIJKLMNOPQRSTUVWXYZabcdefghijklmnopqrstuvwxyz**************************
**PARASOLID !"#$%&'()*+,-./:;<=>?@[\]^_`{|}~0123456789**************************
**PART1;
MC=Intel x86;
MC_MODEL=Level 15 Model 2 Stepping 7;
MC_ID=LAPTOPDJ;
OS=Windows XP;
OS_RELEASE=Build 2600 Service Pack 2.0;
FRU=PRO/INTERFACE BY PTC, 2006010;
APPL=PRO/ENGINEER BY PTC, 2006010;
SITE=;
USER=D & K;
FORMAT=text;
GUISE=transmit;
KEY=COAT-PIN;
FILE=coat-pin.x_t;
DATE=08-19-2007;
**PART2;
SCH=SCH_1000149_10004;
USFLD_SIZE=0;
**PART3;
**END_OF_HEADER*****************************************************************
T51 : TRANSMIT FILE created by modeller version 100014917 SCH_1000149_100040 12
 1 146 5 7 0 0 0 0 1e3 1e-8 0 0 0 1 0 1 1 33 224 193 71 36 216 72 79 13 2 SDL/TY
SA_NAME80 1 3 0 2 8017 0 0 0 0 0 0 0 0 TTTTTTTTTTTTT3 84 8 4 COAT-PIN81 1 5 1 3
 1 0 0 0 0 4 74 20 6 1 0 5 0 0 0 0 0 0 0 0 0 0 0 0 0 0 0 0 0 0 0 70 7 0 1 0 0 4
 1 20 4 6 6 1 T31 8 2 0 76 0 9 0 +0e0 0e0 0e0 0e0 0e0 1e0 1e0 0e0 0e0 2.54e-2
 31 9 3 0 78 8 10 0 +0e0 0e0 0e0 0e0 0e0 1e0 -1e0 0e0 0e0 2.54e-2 30 10 4 0 88
 9 11 0 +2.54e-2 0e0 0e0 0e0 0e0 1e0 31 11 5 0 93 10 12 0 +0e0 0e0 7.62e-2 0e0
 0e0 1e0 9.16515138991168e-1 -4e-1 0e0 3.81e-2 30 12 6 0 95 11 13 0 +
-3.49192267955635e-2 -1.524e-2 7.62e-2 4e-1 -9.16515138991168e-1 0e0 31 13 7 0
 97 12 14 0 +0e0 -6.35e-2 7.62e-2 0e0 0e0 1e0 -9.16515138991168e-1
 -3.99999999999999e-1 0e0 1.27e-2 30 14 8 0 99 13 15 0 +1.16397422651878e-2
 -6.858e-2 7.62e-2 4e-1 9.16515138991168e-1 0e0 31 15 9 0 83 14 16 0 +0e0 0e0
 7.62e-2 0e0 0e0 1e0 1e0 0e0 0e0 2.54e-2 31 16 10 0 103 15 17 0 +0e0 0e0
 7.62e-2 0e0 0e0 1e0 -1e0 0e0 0e0 2.54e-2 30 17 11 0 109 16 18 0 +
3.49192267955635e-2 -1.524e-2 7.62e-2 0e0 0e0 1e0 30 18 12 0 128 17 19 0 +
1.16397422651878e-2 -6.858e-2 7.62e-2 0e0 0e0 1e0 31 19 13 0 139 18 20 0 +0e0
 -6.35e-2 1.30048e-1 0e0 0e0 1e0 -1e0 0e0 0e0 1.27e-2 30 20 14 0 141 19 21 0 +
-1.27e-2 -6.35e-2 1.30048e-1 0e0 0e0 1e0 31 21 15 0 147 20 22 0 +0e0 -6.35e-2
 1.30048e-1 0e0 0e0 1e0 9.16515138991168e-1 -4e-1 0e0 1.27e-2 30 22 16 0 151 21
 23 0 +-1.16397422651878e-2 -6.858e-2 1.30048e-1 0e0 0e0 -1e0 30 23 17 0 113 22
 24 0 +-3.49192267955635e-2 -1.52399999999999e-2 7.62e-2 0e0 0e0 1e0 31 24 18 0
 179 23 25 0 +0e0 -6.35e-2 1.27e-1 0e0 0e0 1e0 9.75645147958340e-1
 2.19354838709678e-1 0e0 1.5748e-2 30 25 19 0 198 24 26 0 +-3.49192267955635e-2
 -1.524e-2 1.27e-1 4e-1 -9.16515138991168e-1 0e0 31 26 20 0 111 25 27 0 +0e0
 0e0 1.27e-1 0e0 0e0 1e0 9.16515138991168e-1 -4e-1 0e0 3.81e-2 30 27 21 0 132
 26 28 0 +1.53644597900479e-2 -6.00456e-2 1.27e-1 4e-1 9.16515138991168e-1 0e0
 31 28 22 0 183 27 29 0 +0e0 -6.35e-2 1.30048e-1 0e0 0e0 1e0 1e0 0e0 0e0
 1.27e-2 30 29 23 0 145 28 30 0 +1.27e-2 -6.35e-2 1.30048e-1 0e0 0e0 1e0 31 30
 24 0 216 29 31 0 +0e0 -6.35e-2 2.032e-1 0e0 0e0 1e0 1e0 0e0 0e0 1.27e-2 31 31
 25 0 143 30 32 0 +0e0 -6.35e-2 2.032e-1 0e0 0e0 1e0 -1e0 0e0 0e0 1.27e-2 30 32
 26 0 85 31 125 0 +-2.54e-2 0e0 0e0 0e0 0e0 1e0 13 33 27 0 1 0 225 0 0 34 0 19
 34 146 0 1 0 36 33 S13 35 28 0 0 0 0 0 0 36 225 19 36 29 0 1 34 0 35 V29 37 30
 0 38 0 39 2.54e-2 0e0 0e0 18 38 31 0 229 40 0 37 ?1 29 39 32 0 40 37 41
 -2.54e-2 0e0 0e0 18 40 33 0 230 42 38 39 ?1 29 41 34 0 42 39 43
 3.49192267955635e-2 -1.524e-2 7.62e-2 18 42 35 0 135 44 40 41 ?1 29 43 36 0 44
 41 45 -3.49192267955635e-2 -1.524e-2 7.62e-2 18 44 37 0 203 46 42 43 ?1 29 45
 38 0 46 43 47 -1.16397422651878e-2 -6.858e-2 7.62e-2 18 46 39 0 202 48 44 45 ?
1 29 47 40 0 48 45 49 1.16397422651878e-2 -6.858e-2 7.62e-2 18 48 41 0 150 50
 46 47 ?1 29 49 42 0 50 47 51 3.49192267955635e-2 -1.524e-2 1.27e-1 18 50 43 0
 210 52 48 49 ?1 29 51 44 0 52 49 53 -3.49192267955635e-2 -1.524e-2 1.27e-1 18
 52 45 0 209 54 50 51 ?1 29 53 46 0 54 51 55 2.54e-2 0e0 7.62e-2 18 54 47 0 228
 56 52 53 ?1 29 55 48 0 56 53 57 -2.54e-2 0e0 7.62e-2 18 56 49 0 227 58 54 55 ?
1 29 57 50 0 58 55 59 1.27e-2 -6.35e-2 2.032e-1 18 58 51 0 223 60 56 57 ?1 29
 59 52 0 60 57 61 -1.27e-2 -6.35e-2 2.032e-1 18 60 53 0 222 62 58 59 ?1 29 61
 54 0 62 59 63 -1.27e-2 -6.35e-2 1.30048e-1 18 62 55 0 214 64 60 61 ?1 29 63 56
 0 64 61 65 -1.16397422651878e-2 -6.858e-2 1.30048e-1 18 64 57 0 201 66 62 63 ?
1 29 65 58 0 66 63 67 1.53644597900480e-2 -6.00455999999999e-2 1.27e-1 18 66 59
 0 207 68 64 65 ?1 29 67 60 0 68 65 69 -1.53644597900479e-2 -6.00456e-2 1.27e-1
 18 68 61 0 208 70 66 67 ?1 29 69 62 0 70 67 71 1.16397422651878e-2 -6.858e-2
 1.30048e-1 18 70 63 0 182 72 68 69 ?1 29 71 64 0 72 69 0 1.27e-2 -6.35e-2
 1.30048e-1 18 72 65 0 215 0 70 71 ?1 50 73 66 0 74 0 80 0 +0e0 0e0 0e0 0e0 0e0
 1e0 1e0 0e0 0e0 14 74 67 0 ?0 81 75 33 73 -0 0 0 81 35 15 75 68 0 79 74 0 16
 76 69 0 ?87 78 0 8 0 0 1 17 77 75 79 79 38 87 76 0 0 -16 78 70 0 ?229 83 76 9
 0 0 1 17 79 75 77 77 40 229 78 0 0 -51 80 71 0 81 73 90 0 +0e0 0e0 0e0 0e0 0e0
 1e0 2.54e-2 1e0 0e0 0e0 14 81 72 0 ?74 91 82 33 80 +0 0 74 91 35 15 82 73 0 89
 81 0 16 83 74 0 ?102 85 78 15 0 0 1 17 84 82 89 86 54 102 83 0 0 -16 85 75 0 ?
86 88 83 32 0 0 1 17 86 82 84 87 56 230 85 0 0 +17 87 82 86 89 40 77 76 0 79 +
16 88 76 0 ?228 93 85 10 0 0 1 17 89 82 87 84 38 228 88 0 77 -50 90 77 0 91 80
 105 0 +0e0 0e0 7.62e-2 0e0 0e0 1e0 1e0 0e0 0e0 14 91 78 0 ?81 106 101 33 90 -0
 0 81 106 35 15 92 79 0 100 91 0 16 93 80 0 ?108 95 88 11 0 0 1 17 94 92 100 96
 42 108 93 0 0 -16 95 81 0 ?202 97 93 12 0 0 1 17 96 92 94 98 44 202 95 0 0 -16
 97 82 0 ?150 99 95 13 0 0 1 17 98 92 96 100 46 150 97 0 0 -16 99 83 0 ?135 103
 97 14 0 0 1 17 100 92 98 94 48 135 99 0 0 -15 101 84 0 104 91 92 17 102 101
 104 104 56 84 83 0 86 +16 103 85 0 ?104 109 99 16 0 0 1 17 104 101 102 102 54
 227 103 0 84 +51 105 86 0 106 90 115 0 +0e0 0e0 7.62e-2 0e0 0e0 1e0 3.81e-2
 1e0 0e0 0e0 14 106 87 0 ?91 116 107 33 105 +0 0 91 116 35 15 107 88 0 114 106
 0 17 108 107 114 110 44 94 93 0 96 +16 109 89 0 ?134 111 103 17 0 0 1 17 110
 107 108 112 42 134 109 0 94 -16 111 90 0 ?209 113 109 26 0 0 1 17 112 107 110
 114 50 209 111 0 0 -16 113 91 0 ?114 128 111 23 0 0 1 17 114 107 112 108 52
 203 113 0 0 +50 115 92 0 116 105 136 124 +1.16397422651878e-2 -6.858e-2
 7.62e-2 9.16515138991168e-1 -4e-1 0e0 4e-1 9.16515138991168e-1 0e0 14 116 93 0
 ?106 137 127 33 115 +0 0 106 137 35 45 20 117 0e0 5.3848e-2
 4.04942831104818e-4 5.36496655689791e-2 1.21815237674884e-3
 5.32512035727074e-2 2.44811179941545e-3 5.26700414025061e-2
 3.69296055929288e-3 5.21253597448533e-2 4.95863963867481e-3
 5.16376832966125e-2 6.28025936875180e-3 5.12207452289438e-2
 7.73152917968546e-3 5.08961350924641e-2 8.76127286416714e-3
 5.08014067899782e-2 9.31179381215041e-3 5.08e-2 127 8 118 4 1 1 1 1 1 1 4 128
 8 119 0e0 1.36930385081049e-1 2.74953053208135e-1 4.13042638223229e-1
 5.49434411544681e-1 6.86608233928156e-1 8.33548941387733e-1 1e0 136 120 3 10 2
 8 6 FFF2 117 118 119 135 121 1 134 122 0 0 0 0 0 0 +120 121 137 123 97 0 1 125
 163 126 -115 122 0 ?141 124 123 124 124 115 133 125 96 0 131 32 123 0 +123
 1.53644597900480e-2 -6.00455999999999e-2 1.27e-1 1.16397422651878e-2 -6.858e-2
 1.30048e-1 1e0 0e0 141 126 125 126 126 123 15 127 98 0 135 116 0 16 128 99 0 ?
149 130 113 18 0 0 1 17 129 127 135 131 48 149 128 0 100 -16 130 100 0
 1.12020931878569e-5 131 132 128 0 0 0 1 17 131 127 129 133 70 181 130 125 0 +
16 132 101 0 ?210 139 130 27 0 0 1 17 133 127 131 134 66 210 132 0 0 -17 134
 127 133 135 50 110 109 0 112 +17 135 127 134 129 42 100 99 0 110 +51 136 102 0
 137 115 153 0 +0e0 -6.35e-2 1.27e-1 0e0 0e0 1e0 1.27e-2 1e0 0e0 0e0 14 137 103
 0 ?116 154 138 33 136 +0 0 116 154 35 15 138 104 0 152 137 0 16 139 105 0 ?140
 141 132 19 0 0 1 17 140 138 152 142 64 176 139 0 0 +16 141 106 0 ?218 143 139
 20 0 0 1 17 142 138 140 144 62 218 141 0 0 -16 143 107 0 ?223 145 141 31 0 0 1
 17 144 138 142 146 60 223 143 0 0 -16 145 108 0 ?146 147 143 29 0 0 1 17 146
 138 144 148 58 215 145 0 0 +16 147 109 0 ?148 151 145 21 0 0 1 17 148 138 146
 149 72 182 147 0 0 +17 149 138 148 150 70 129 128 0 131 +17 150 138 149 152 48
 98 97 0 129 +16 151 110 0 ?152 177 147 22 0 0 1 17 152 138 150 140 46 201 151
 0 98 +54 153 111 0 154 136 185 162 +0e0 -6.35e-2 1.30048e-1 0e0 0e0 1e0
 1.5748e-2 3.048e-3 9.99559060079296e-1 -2.96931879964759e-2 0e0 14 154 112 0 ?
137 186 175 33 153 -0 0 137 186 35 45 20 155 3.58280705272765e0
 -3.14159265358979e0 3.55089687015240e0 -3.07645398332827e0 3.48695357536491e0
 -2.94593366064256e0 3.39204073980296e0 -2.74806696369380e0 3.29939001080404e0
 -2.54650608030696e0 3.20978031219436e0 -2.33856926659516e0 3.12222811654770e0
 -2.11670453890707e0 3.03420167033677e0 -1.86580783524818e0 2.97814778878776e0
 -1.67662196791956e0 2.95013705170912e0 -1.57079632679490e0 127 8 156 4 1 1 1 1
 1 1 4 128 8 157 0e0 1.37018811742310e-1 2.74599642878378e-1
 4.12279360600307e-1 5.48874375183539e-1 6.86938819469671e-1
 8.34285307445531e-1 1e0 136 158 3 10 2 8 6 FFF2 155 156 157 135 159 1 134 160
 0 0 0 0 0 0 +158 159 137 161 116 0 1 163 173 164 -153 160 0 ?141 162 161 172
 172 153 133 163 115 0 178 123 161 0 +161 -1.53644597900479e-2 -6.00456e-2
 1.27e-1 -1.16397422651878e-2 -6.858e-2 1.30048e-1 1e0 0e0 141 164 163 164 164
 161 45 20 165 2.50850708021411e-1 -1.57079632679490e0 2.22714857364558e-1
 -1.67709297380262e0 1.66587434745053e-1 -1.86643232535213e0
 7.86487100289238e-2 -2.11695943196259e0 -8.58680242497555e-3
 -2.33804901316625e0 -9.80300168953568e-2 -2.54567721237290e0
 -1.90816446587870e-1 -2.74757387778980e0 -2.85904203473472e-1
 -2.94580789787912e0 -3.49929728751713e-1 -3.07649606790140e0
 -3.81819292997122e-1 -3.14159265358979e0 127 8 166 4 1 1 1 1 1 1 4 128 8 167
 0e0 1.66451058612255e-1 3.13391766071836e-1 4.50565588455311e-1
 5.86957361776765e-1 7.25046946791861e-1 8.63069614918949e-1 1e0 136 168 3 10 2
 8 6 FFF2 165 166 167 135 169 1 134 170 0 0 0 0 0 0 +168 169 137 171 120 0 1
 173 195 174 -153 170 0 ?141 172 171 162 162 153 133 173 119 0 181 161 171 0 +
171 1.16397422651878e-2 -6.858e-2 1.30048e-1 1.53644597900479e-2 -6.00456e-2
 1.27e-1 1e0 0e0 141 174 173 174 174 171 15 175 121 0 184 154 0 17 176 175 184
 178 62 140 139 0 142 -16 177 122 0 1.08078240255701e-5 200 179 151 0 0 0 1 17
 178 175 176 180 64 200 177 163 140 -16 179 123 0 ?180 183 177 24 0 0 1 17 180
 175 178 181 68 207 179 0 0 +17 181 175 180 182 66 131 130 173 133 -17 182 175
 181 184 70 148 147 0 149 -16 183 124 0 ?214 198 179 28 0 0 1 17 184 175 182
 176 72 214 183 0 148 -50 185 125 0 186 153 204 194 +-3.49192267955635e-2
 -1.524e-2 7.62e-2 -9.16515138991168e-1 -4e-1 0e0 4e-1 -9.16515138991168e-1 0e0
 14 186 126 0 ?154 205 197 33 185 +0 0 154 205 35 45 20 187 4.88869175137891e-2
 5.08e-2 4.94349849031797e-2 5.08013914936981e-2 5.04636676581325e-2
 5.08956137874102e-2 5.19168806395808e-2 5.12201212612675e-2
 5.32431894091264e-2 5.16386749676948e-2 5.45108433407639e-2
 5.21274933873898e-2 5.57536593766892e-2 5.26714875802119e-2
 5.69813414817519e-2 5.32515869850648e-2 5.77935065635570e-2
 5.36495371768287e-2 5.81987113259392e-2 5.3848e-2 127 8 188 4 1 1 1 1 1 1 4
 128 8 189 0e0 1.65714692554459e-1 3.13061180530320e-1 4.51125624816456e-1
 5.87720639399691e-1 7.25400357121618e-1 8.62981188257691e-1 1e0 136 190 3 10 2
 8 6 FFF2 187 188 189 135 191 1 134 192 0 0 0 0 0 0 +190 191 137 193 130 0 1
 195 0 196 -185 192 0 ?141 194 193 194 194 185 133 195 129 0 200 171 193 0 +193
 -1.16397422651878e-2 -6.858e-2 1.30048e-1 -1.53644597900479e-2
 -6.00456000000001e-2 1.27e-1 1e0 0e0 141 196 195 196 196 193 15 197 131 0 203
 186 0 16 198 132 0 ?208 216 183 25 0 0 1 17 199 197 203 200 52 208 198 0 114 -
17 200 197 199 201 68 178 177 195 180 +17 201 197 200 202 64 152 151 0 178 -17
 202 197 201 203 46 96 95 0 152 +17 203 197 202 199 44 114 113 0 108 -50 204
 133 0 205 185 211 0 +0e0 0e0 1.27e-1 0e0 0e0 1e0 1e0 0e0 0e0 14 205 134 0 ?186
 212 206 33 204 +0 0 186 212 35 15 206 135 0 210 205 0 17 207 206 210 208 66
 180 179 0 181 -17 208 206 207 209 68 199 198 0 200 +17 209 206 208 210 52 112
 111 0 199 +17 210 206 209 207 50 133 132 0 134 +51 211 136 0 212 204 219 0 +
0e0 -6.35e-2 7.62e-2 0e0 0e0 1e0 1.27e-2 1e0 0e0 0e0 14 212 137 0 ?205 220 213
 33 211 +0 0 205 220 35 15 213 138 0 218 212 0 17 214 213 218 215 62 184 183 0
 176 +17 215 213 214 217 72 146 145 0 184 -16 216 139 0 ?222 0 198 30 0 0 1 17
 217 213 215 218 58 222 216 0 146 -17 218 213 217 214 60 142 141 0 144 +50 219
 140 0 220 211 224 0 +0e0 0e0 2.032e-1 0e0 0e0 1e0 1e0 0e0 0e0 14 220 141 0 ?
212 225 221 33 219 +0 0 212 225 35 15 221 142 0 223 220 0 17 222 221 223 223 60
 217 216 0 218 +17 223 221 222 222 58 144 143 0 217 +51 224 143 0 225 219 0 0 +
0e0 0e0 0e0 0e0 0e0 1e0 2.54e-2 1e0 0e0 0e0 14 225 144 0 ?220 0 226 33 224 +0 0
 220 0 35 15 226 145 0 230 225 0 17 227 226 230 228 56 104 103 0 102 -17 228
 226 227 229 54 89 88 0 104 +17 229 226 228 230 38 79 78 0 89 +17 230 226 229
 227 40 86 85 0 87 -1 0 
